<svg width="141" height="38" viewBox="0 0 141 38" fill="none" xmlns="http://www.w3.org/2000/svg">
<path d="M47.4742 27.29H28.5989C29.261 32.1993 33.9133 33.1794 38.2415 32.2754C40.3042 31.8457 42.0246 30.2884 42.466 29.5052L46.7176 31.3535C45.452 36.2135 38.9441 38.29 34.3187 37.9678C19.123 36.9072 19.6904 13.9181 32.5127 12.2444C42.8894 10.8884 47.9066 17.6012 47.4697 27.29H47.4742ZM41.5517 22.1435C40.3718 15.5918 29.9635 15.7574 28.5989 22.1435H41.5517Z" fill="white"/>
<path d="M70.4204 37.878V36.0432C68.9117 36.6742 67.6911 37.4484 65.9977 37.7169C47.9826 40.5497 46.9243 13.7433 61.3498 12.1367C64.3899 11.7965 67.9389 12.1143 70.4159 13.976V12.1367H75.9691V37.878H70.4159H70.4204ZM62.1875 17.3816C54.8419 18.4243 54.95 31.5322 62.093 32.3646C66.8084 32.9105 69.934 31.2189 70.4159 26.2917C70.9699 20.6216 68.3712 16.5089 62.1875 17.3816Z" fill="white"/>
<path d="M81.5232 12.1362L86.5044 12.1093L86.707 13.2371C93.4132 10.5967 100.421 12.3107 103.281 19.386C103.601 20.1737 103.731 21.015 103.731 22.2457V37.8775H98.1781V21.8787C98.0295 19.9902 97.0882 19.1488 97.0882 19.1488C95.1561 16.5085 90.7109 16.5935 88.5581 18.943C87.815 19.7575 86.7881 20.9076 86.7025 23.351V37.8775H81.5232V12.1362Z" fill="white"/>
<path d="M139.573 12.1221L130.714 24.6012L140.132 37.8936H133.561L127.416 29.2505L121.299 37.8936H114.701L124.119 24.6012L115.288 12.1221H121.859L127.418 19.9779L132.978 12.1221H139.575H139.573Z" fill="#FFCE33"/>
<path d="M18.6049 0H13.4255V29.8496H18.6049V0Z" fill="white"/>
<path d="M112.243 37.8785H107.059L112.243 31.9937V37.8785Z" fill="#FFCE33"/>
<path d="M0.378317 0.133789L4.0669 6.75709V8.36368L0 15.5867H3.99935L8.14732 8.27866V6.75709L4.0669 0.133789H0.459385H0.378317Z" fill="#FFCE33"/>
<path d="M18.6049 29.8496H13.4255V37.9229H18.6049V29.8496Z" fill="white"/>
</svg>
