<svg width="199" height="54" viewBox="0 0 199 54" fill="none" xmlns="http://www.w3.org/2000/svg">
<path d="M67.1421 38.7803H40.4471C41.3834 45.7567 47.9632 47.1494 54.0844 45.8648C57.0017 45.2543 59.4349 43.0412 60.0591 41.9283L66.072 44.5547C64.2822 51.4611 55.0781 54.412 48.5365 53.9541C27.0454 52.4469 27.848 19.7781 45.9823 17.3997C60.6579 15.4728 67.7536 25.012 67.1358 38.7803H67.1421ZM58.7661 31.4669C57.0972 22.1566 42.3771 22.3919 40.4471 31.4669H58.7661Z" fill="#5FC7CD"/>
<path d="M99.5947 53.8269V51.2195C97.4609 52.1162 95.7347 53.2164 93.3397 53.5979C67.8612 57.6235 66.3644 19.5301 86.7663 17.2471C91.0658 16.7637 96.085 17.2153 99.5883 19.8608V17.2471H107.442V53.8269H99.5883H99.5947ZM87.951 24.7004C77.5622 26.1822 77.715 44.8091 87.8173 45.992C94.4863 46.7678 98.9068 44.364 99.5883 37.3622C100.372 29.3047 96.6965 23.4603 87.951 24.7004Z" fill="#5FC7CD"/>
<path d="M115.297 17.2461L122.342 17.208L122.628 18.8106C132.113 15.0584 142.024 17.4941 146.069 27.5485C146.521 28.6678 146.705 29.8634 146.705 31.6122V53.8259H138.852V31.0907C138.642 28.407 137.31 27.2114 137.31 27.2114C134.578 23.4593 128.291 23.5802 125.246 26.9189C124.195 28.0763 122.743 29.7107 122.622 33.183V53.8259H115.297V17.2461Z" fill="#5FC7CD"/>
<path d="M197.396 17.2261L184.867 34.9596L198.186 53.8488H188.893L180.203 41.5665L171.551 53.8488H162.221L175.54 34.9596L163.05 17.2261H172.343L180.206 28.3897L188.069 17.2261H197.399H197.396Z" fill="#FFCE33"/>
<path d="M26.3126 0H18.9875V42.4178H26.3126V0Z" fill="#8273B5"/>
<path d="M158.743 53.8271H151.412L158.743 45.4644V53.8271Z" fill="#FFCE33"/>
<path d="M0.535048 0.19043L5.75177 9.60248V11.8855L0 22.1498H5.65622L11.5226 11.7647V9.60248L5.75177 0.19043H0.649701H0.535048Z" fill="#FFCE33"/>
<path d="M26.3126 42.418H18.9875V53.8905H26.3126V42.418Z" fill="#5FC7CD"/>
</svg>
