<svg width="60" height="61" viewBox="0 0 60 61" fill="none" xmlns="http://www.w3.org/2000/svg">
<path d="M59.7544 50.8005L40.3044 43.0806V25.3105L59.7544 33.0305V50.8005Z" fill="#5EC6CC"/>
<path d="M59.7344 50.8407L39.9043 42.8008L22.7144 52.4008L42.5444 60.4408L59.7344 50.8407Z" fill="url(#paint0_linear_17_301)"/>
<path d="M42.4243 60.5007L22.8345 52.4106V34.6006L42.4243 42.6907V60.5007Z" fill="url(#paint1_linear_17_301)"/>
<path opacity="0.6" d="M59.7544 33.0305L40.3044 25.3105L22.8943 34.5605L42.3745 42.6505L59.7544 33.0305Z" fill="#8272B3"/>
<path d="M53.6943 21.6703C53.2343 20.9503 52.4744 20.7802 51.8344 20.4702C41.3944 15.4502 48.3843 19.2904 37.9743 14.2104C36.3543 13.4204 35.1943 13.4903 33.6943 14.5303C25.1343 20.4703 16.5344 26.3403 7.88444 32.1303C2.21444 35.9303 -0.205629 41.1303 0.314371 47.9003C0.354371 48.2903 0.364214 48.4203 0.404214 48.8803C0.534214 50.8303 1.22427 51.7902 2.96427 52.5702C4.03427 53.0502 14.7743 57.5704 16.9943 58.4704C17.8143 58.8104 18.7442 59.4104 19.4242 58.9904C19.9242 58.6804 19.6844 57.5303 19.6244 56.6503C19.6044 56.3303 19.7044 57.3903 19.5544 55.9203C19.0144 49.0003 21.5143 43.8403 27.2743 40.0003C35.5243 34.5003 43.6544 28.8304 51.8244 23.2104C52.4844 22.7604 53.2743 22.4303 53.7043 21.6503L53.6943 21.6703Z" fill="url(#paint2_linear_17_301)"/>
<path opacity="0.33" d="M47.5745 21.2104L37.4944 16.8604L34.1345 19.1003L44.2144 23.4404L47.5745 21.2104Z" fill="white"/>
<path opacity="0.33" d="M33.3943 26.2505L24.8145 22.7705L23.0444 23.8805L31.6245 27.3605L33.3943 26.2505Z" fill="white"/>
<path opacity="0.33" d="M35.7043 27.4902L33.9343 28.6002L38.1643 30.1803L39.9343 29.0703" fill="white"/>
<path opacity="0.33" d="M27.6543 25.9406L22.8445 24.0605L21.0745 25.1805L25.8845 27.0505L27.6543 25.9406Z" fill="white"/>
<path opacity="0.33" d="M28.4043 29.5503L19.8245 26.0703L18.0544 27.1803L26.6345 30.6603L28.4043 29.5503Z" fill="white"/>
<path opacity="0.33" d="M32.6743 33.4503L17.7043 27.2803L15.9343 28.4003L30.9043 34.5703L32.6743 33.4503Z" fill="white"/>
<path opacity="0.33" d="M22.9343 33.0005L14.3445 29.5205L12.5745 30.6305L21.1643 34.1105L22.9343 33.0005Z" fill="white"/>
<path opacity="0.33" d="M25.7444 34.4302L23.9744 35.5502L28.2043 37.1301L29.9744 36.0101" fill="white"/>
<path opacity="0.33" d="M17.0344 53.4005L2.06445 47.2305L2.28442 50.0005L17.2644 56.1705L17.0344 53.4005Z" fill="white"/>
<path opacity="0.33" d="M17.7544 47.9402L9.67432 44.6401L9.17432 49.3302L17.2644 52.6301L17.7544 47.9402Z" fill="white"/>
<path opacity="0.33" d="M46.5244 24.7604L31.3145 18.1904L30.1245 18.7604L45.3345 25.3304L46.5244 24.7604Z" fill="white"/>
<defs>
<linearGradient id="paint0_linear_17_301" x1="49.1744" y1="46.9808" x2="30.4644" y2="57.8908" gradientUnits="userSpaceOnUse">
<stop stop-color="#26A9E0"/>
<stop offset="0.41" stop-color="#5EC6CC"/>
</linearGradient>
<linearGradient id="paint1_linear_17_301" x1="30.7244" y1="39.9706" x2="36.9245" y2="64.5807" gradientUnits="userSpaceOnUse">
<stop stop-color="#FFD649"/>
<stop offset="1" stop-color="#FDC148"/>
</linearGradient>
<linearGradient id="paint2_linear_17_301" x1="-0.548482" y1="38.3079" x2="54.464" y2="34.2777" gradientUnits="userSpaceOnUse">
<stop stop-color="#5EC6CC"/>
<stop offset="0.13" stop-color="#56C2CE"/>
<stop offset="0.31" stop-color="#43B8D5"/>
<stop offset="0.51" stop-color="#26A9E0"/>
<stop offset="0.53" stop-color="#29AADE"/>
<stop offset="0.84" stop-color="#4FBED1"/>
<stop offset="1" stop-color="#5EC6CC"/>
</linearGradient>
</defs>
</svg>
