<svg width="32" height="32" viewBox="0 0 32 32" fill="none" xmlns="http://www.w3.org/2000/svg">
<path opacity="0.28" d="M11.3551 20.2799L27.5651 18.0299C28.1851 18.0299 28.6951 17.5199 28.6951 16.8999V5.05994C28.6951 4.43994 28.1851 3.92993 27.5651 3.92993L11.3551 6.17993C10.7351 6.17993 10.2251 6.68994 10.2251 7.30994V19.1499C10.2251 19.7699 10.7351 20.2799 11.3551 20.2799Z" fill="#8272B3"/>
<path d="M13.985 21.2699L30.195 19.0199C30.815 19.0199 31.325 18.5099 31.325 17.8899V6.04993C31.325 5.42993 30.815 4.91992 30.195 4.91992L13.985 7.16992C13.365 7.16992 12.855 7.67993 12.855 8.29993V20.1399C12.855 20.7599 13.365 21.2699 13.985 21.2699Z" fill="#5EC6CC"/>
<path d="M22.745 28.0699L2.11505 25.5399C1.32505 25.5399 0.675049 24.9699 0.675049 24.2699V10.9499C0.675049 10.2499 1.31505 9.67993 2.11505 9.67993L22.745 12.2099C23.535 12.2099 24.1851 12.7799 24.1851 13.4799V26.7999C24.1851 27.4999 23.545 28.0699 22.745 28.0699Z" fill="url(#paint0_linear_39_36620)"/>
<path d="M21.915 21.5399L18.355 21.05C18.215 21.05 18.105 20.94 18.105 20.8V18.2C18.105 18.06 18.215 17.95 18.355 17.95L21.915 18.44C22.055 18.44 22.165 18.55 22.165 18.69V21.2899C22.165 21.4299 22.055 21.5399 21.915 21.5399Z" fill="#8272B3"/>
<defs>
<linearGradient id="paint0_linear_39_36620" x1="0.675049" y1="18.8699" x2="24.1851" y2="18.8699" gradientUnits="userSpaceOnUse">
<stop stop-color="#FFD649"/>
<stop offset="1" stop-color="#FDC148"/>
</linearGradient>
</defs>
</svg>
