<svg width="32" height="32" viewBox="0 0 32 32" fill="none" xmlns="http://www.w3.org/2000/svg">
<path d="M32 21.4149L11.7774 13.7949L0.568115 19.2449L20.8235 27.0749L32 21.4149Z" fill="#5EC6CB"/>
<path d="M20.8126 30.4048L0.568115 22.5648V19.2349L20.8126 27.0749V30.4048Z" fill="url(#paint0_linear_39_36565)"/>
<path d="M20.7908 30.415L32.0001 24.735V21.415L20.7908 27.085V30.415Z" fill="url(#paint1_linear_39_36565)"/>
<path d="M20.8235 27.0747L20.7361 30.4047" stroke="white" stroke-width="0.25" stroke-miterlimit="10"/>
<path opacity="0.61" d="M23.1725 18.065L19.3705 16.665L7.99731 22.175L12.0833 23.665L23.1725 18.065Z" fill="#8173B3"/>
<path opacity="0.61" d="M12.0724 27.0051L7.99731 25.5051V22.175L12.0724 23.6851V27.0051Z" fill="#8173B3"/>
<path d="M31.4537 18.2249L11.5151 10.0049L0.120117 15.1149L20.0805 23.5549L31.4537 18.2249Z" fill="#5EC6CB"/>
<path d="M19.9495 26.875L0 18.425L0.120178 15.105L20.0696 23.555L19.9495 26.875Z" fill="url(#paint2_linear_39_36565)"/>
<path d="M19.9275 26.8851L31.3334 21.5551L31.4536 18.2251L20.0477 23.5651L19.9275 26.8851Z" fill="url(#paint3_linear_39_36565)"/>
<path d="M20.0806 23.5547L19.873 26.8747" stroke="white" stroke-width="0.25" stroke-miterlimit="10"/>
<path opacity="0.61" d="M22.7571 14.615L18.9988 13.105L7.43994 18.265L11.4714 19.885L22.7571 14.615Z" fill="#8173B3"/>
<path opacity="0.61" d="M11.3403 23.2149L7.31982 21.5949L7.44 18.2649L11.4605 19.8949L11.3403 23.2149Z" fill="#8173B3"/>
<g opacity="0.5">
<path d="M24.702 19.6847C24.1994 20.6647 22.2329 21.1947 20.31 20.8647C18.3872 20.5347 17.251 19.4847 17.7645 18.4947C18.267 17.5247 20.2336 16.9947 22.1673 17.3247C24.0683 17.6447 25.2045 18.7047 24.702 19.6847ZM20.5067 20.4847C22.0144 20.7447 23.5657 20.3247 23.97 19.5547C24.3742 18.7847 23.4674 17.9447 21.9597 17.6847C20.4521 17.4247 18.9007 17.8447 18.4964 18.6147C18.0922 19.3847 18.999 20.2247 20.5067 20.4847Z" fill="white"/>
<path d="M23.5658 19.4846C23.2271 20.1446 21.9051 20.4946 20.6269 20.2846C19.3268 20.0646 18.562 19.3546 18.9007 18.6946C19.2394 18.0346 20.5613 17.6846 21.8505 17.9046C23.1397 18.1246 23.9045 18.8346 23.5767 19.4846H23.5658ZM20.321 19.2146C20.2336 19.2646 20.1462 19.3146 20.0588 19.3546C20.0151 19.3746 20.0151 19.3946 20.0588 19.4146C20.1462 19.4646 20.2336 19.5145 20.3428 19.5545C20.4521 19.5945 20.6269 19.6245 20.6706 19.6745C20.7252 19.7345 20.6269 19.8146 20.5941 19.8746C20.5832 19.9046 20.5941 19.9145 20.6487 19.9245C20.8673 19.9712 21.0056 19.9412 21.0639 19.8345C21.0639 19.8345 21.0748 19.8145 21.0748 19.8045C21.0748 19.7545 21.1404 19.7446 21.2387 19.7546C21.4463 19.7746 21.6539 19.7546 21.8177 19.6946C22.1783 19.5546 22.1564 19.2846 21.785 19.1246C21.5774 19.0346 21.337 18.9746 21.1295 18.8846C20.9874 18.8246 20.9546 18.7646 21.0093 18.7046C21.0639 18.6446 21.1841 18.6146 21.348 18.6346C21.6102 18.6646 21.8177 18.7346 21.9925 18.8446C22.0472 18.8746 22.069 18.8746 22.1237 18.8446C22.3968 18.7046 22.3968 18.7046 22.0909 18.5746C22.0909 18.5746 22.0799 18.5746 22.069 18.5746C21.8068 18.5146 21.7413 18.4246 21.8724 18.2946C21.8942 18.2746 21.8724 18.2546 21.8177 18.2446C21.49 18.1746 21.49 18.1746 21.4026 18.3446C21.4026 18.3446 21.4026 18.3545 21.4026 18.3645C21.4026 18.4045 21.348 18.4146 21.2715 18.4146C21.1622 18.4146 21.053 18.4146 20.9437 18.4346C20.6815 18.4846 20.5395 18.5846 20.4849 18.7146C20.4302 18.8446 20.5504 18.9546 20.7471 19.0346C20.8345 19.0746 20.9328 19.1045 21.0202 19.1445C21.1622 19.1945 21.3261 19.2445 21.4463 19.3045C21.5555 19.3645 21.5883 19.4246 21.5009 19.4846C21.4244 19.5346 21.3152 19.5345 21.195 19.5245C20.8345 19.4845 20.5613 19.3646 20.3319 19.2246L20.321 19.2146Z" fill="white"/>
</g>
<g opacity="0.5">
<path d="M12.9683 14.4452C12.5422 15.2652 10.8925 15.7152 9.28652 15.4352C7.66959 15.1652 6.71909 14.2752 7.14517 13.4452C7.57126 12.6252 9.22097 12.1852 10.8379 12.4652C12.433 12.7352 13.3835 13.6252 12.9683 14.4452ZM9.43947 15.1252C10.7068 15.3452 12.0069 14.9952 12.3456 14.3452C12.6843 13.6952 11.9195 12.9952 10.6631 12.7752C9.39577 12.5552 8.09567 12.9052 7.75699 13.5552C7.41831 14.2052 8.18307 14.9052 9.43947 15.1252Z" fill="white"/>
<path d="M12.007 14.2753C11.7229 14.8253 10.6195 15.1253 9.53787 14.9453C8.44535 14.7653 7.80076 14.1653 8.08482 13.6153C8.36888 13.0653 9.48324 12.7653 10.5539 12.9453C11.6355 13.1253 12.2801 13.7253 11.996 14.2753H12.007ZM9.28659 14.0553C9.21012 14.0953 9.14456 14.1353 9.06808 14.1753C9.03531 14.1953 9.03531 14.2053 9.06808 14.2253C9.14456 14.2653 9.22104 14.3053 9.30844 14.3353C9.40677 14.3653 9.5488 14.3953 9.5925 14.4353C9.6362 14.4853 9.5488 14.5453 9.52695 14.6053C9.52695 14.6253 9.52694 14.6353 9.57064 14.6453C9.75273 14.6853 9.86927 14.6587 9.92025 14.5653C9.92025 14.5653 9.92025 14.5453 9.93118 14.5453C9.93118 14.5053 9.98581 14.4953 10.0623 14.4953C10.2371 14.5153 10.4119 14.4953 10.543 14.4453C10.838 14.3253 10.827 14.1053 10.5211 13.9653C10.3463 13.8853 10.1388 13.8353 9.96395 13.7653C9.84377 13.7153 9.82193 13.6653 9.86563 13.6153C9.90933 13.5653 10.0077 13.5453 10.1497 13.5553C10.3682 13.5853 10.543 13.6453 10.685 13.7353C10.7287 13.7653 10.7506 13.7653 10.7943 13.7353C11.0237 13.6253 11.0237 13.6153 10.7615 13.5053C10.7615 13.5053 10.7506 13.5053 10.7396 13.5053C10.5211 13.4553 10.4665 13.3753 10.5758 13.2753C10.5976 13.2553 10.5758 13.2453 10.5321 13.2253C10.2589 13.1653 10.2589 13.1653 10.1825 13.3053C10.1825 13.3053 10.1825 13.3153 10.1825 13.3253C10.1825 13.3653 10.1388 13.3653 10.0732 13.3653C9.97488 13.3653 9.88748 13.3653 9.80008 13.3853C9.58158 13.4253 9.46139 13.5053 9.41769 13.6253C9.37399 13.7353 9.47232 13.8253 9.6362 13.8953C9.71268 13.9253 9.78915 13.9553 9.86563 13.9853C9.98581 14.0353 10.1169 14.0653 10.2262 14.1253C10.3245 14.1753 10.3463 14.2253 10.2699 14.2753C10.2043 14.3153 10.1169 14.3153 10.0186 14.3053C9.71267 14.2753 9.49417 14.1753 9.28659 14.0453V14.0553Z" fill="white"/>
</g>
<path opacity="0.88" d="M28.6788 15.895L14.8147 10.155V1.58496L28.6788 7.33496L31.3992 12.325L28.6788 15.895Z" fill="#8173B3"/>
<path opacity="0.88" d="M9.27553 1.58502L23.1396 7.32501V15.895L9.27553 10.145L6.55515 5.155L9.27553 1.58502Z" fill="#FFCE33"/>
<defs>
<linearGradient id="paint0_linear_39_36565" x1="9.6142" y1="20.9249" x2="12.5627" y2="33.6888" gradientUnits="userSpaceOnUse">
<stop stop-color="#FFD549"/>
<stop offset="1" stop-color="#FCC048"/>
</linearGradient>
<linearGradient id="paint1_linear_39_36565" x1="27.182" y1="23.065" x2="25.0285" y2="32.4054" gradientUnits="userSpaceOnUse">
<stop stop-color="#FFD549"/>
<stop offset="1" stop-color="#FCC048"/>
</linearGradient>
<linearGradient id="paint2_linear_39_36565" x1="9.11194" y1="17.0663" x2="11.6674" y2="29.8987" gradientUnits="userSpaceOnUse">
<stop stop-color="#FFD549"/>
<stop offset="1" stop-color="#FCC048"/>
</linearGradient>
<linearGradient id="paint3_linear_39_36565" x1="26.5946" y1="19.7178" x2="24.1537" y2="29.0007" gradientUnits="userSpaceOnUse">
<stop stop-color="#FFD549"/>
<stop offset="1" stop-color="#FCC048"/>
</linearGradient>
</defs>
</svg>
