<svg width="60" height="60" viewBox="0 0 60 60" fill="none" xmlns="http://www.w3.org/2000/svg">
<path opacity="0.8" d="M57.24 45.7244L27.45 32.2545C26.19 32.2545 25.1699 31.2344 25.1699 29.9744V6.11444C25.1699 4.85444 26.19 3.83447 27.45 3.83447L57.24 17.3044C58.53 17.8944 59.54 18.7145 59.54 19.9045L59.52 43.4545C59.52 44.7145 58.5 45.7344 57.24 45.7344V45.7244Z" fill="url(#paint0_linear_11_110)"/>
<path opacity="0.33" d="M56.71 45.5541L25.9299 31.5541C25.2699 31.2541 24.8501 30.6041 24.8401 29.8741L24.96 15.6641L30.3 18.2542L40.96 14.2842L49.8501 32.8342L59.47 33.5242L59.3301 43.8342C59.3401 45.1942 57.94 46.1041 56.7 45.5441L56.71 45.5541Z" fill="white"/>
<path d="M2.54004 42.6244L20.8601 31.5544C22.1201 31.5544 23.1399 30.5344 23.1399 29.2744V5.41434C23.1399 4.15434 21.92 2.75439 20.45 3.40439L2.54004 14.2044C1.32004 14.9144 0.25 15.5944 0.25 16.8444L0.27002 40.3444C0.27002 41.6044 1.33005 42.9344 2.55005 42.6244H2.54004Z" fill="url(#paint1_linear_11_110)"/>
<path opacity="0.46" d="M29.8101 20.9944L40.79 14.2944" stroke="white" stroke-width="0.5" stroke-miterlimit="10"/>
<path opacity="0.46" d="M38.6799 39.5442L49.6499 32.8442" stroke="white" stroke-width="0.5" stroke-miterlimit="10"/>
<path opacity="0.46" d="M19.1201 24.9644L30.1001 18.2544" stroke="white" stroke-width="0.5" stroke-miterlimit="10"/>
<path d="M4.23999 43.7344C4.41999 44.0544 4.75002 44.1444 5.02002 44.2944C9.45002 46.7044 6.48991 44.8844 10.9099 47.3144C11.5999 47.6944 12.1 47.6844 12.78 47.2644C16.63 44.8744 18.0599 44.2944 21.9399 41.9644C24.4899 40.4344 25.6501 38.2344 25.5701 35.2744C25.3701 27.5144 25.35 27.0144 25.21 19.2544C25.19 18.4044 24.9099 17.9744 24.1799 17.5944C19.7099 15.2644 22.66 17.0844 18.21 14.7244C17.87 14.5444 17.5501 14.3044 17.1101 14.2344C16.9401 14.6744 17.02 15.0644 17.03 15.4544C17.2 23.1744 17.1699 23.6444 17.3899 31.3644C17.4699 34.3844 16.2699 36.5744 13.6899 38.1144C9.98994 40.3244 8.77009 40.8244 5.09009 43.0844C4.79009 43.2644 4.43999 43.3944 4.23999 43.7144V43.7344Z" fill="url(#paint2_linear_11_110)"/>
<path d="M13.55 48.2945C13.73 48.6145 14.0601 48.7045 14.3301 48.8545C18.7601 51.2645 15.8 49.4445 20.22 51.8745C20.91 52.2545 21.4101 52.2445 22.0901 51.8245C25.9401 49.4345 27.59 48.7145 31.47 46.3845C34.02 44.8545 35.1801 42.6545 35.1001 39.6945C34.9001 31.9345 34.7201 24.1745 34.5801 16.4145C34.5601 15.5645 34.28 15.1345 33.55 14.7545C29.08 12.4245 32.0301 14.2445 27.5801 11.8845C27.2401 11.7045 26.92 11.4645 26.48 11.3945C26.31 11.8345 26.3899 12.2245 26.3999 12.6145C26.5699 20.3345 26.7099 28.0645 26.9199 35.7845C26.9999 38.8045 25.8 40.9945 23.22 42.5345C19.52 44.7445 18.0699 45.3845 14.3999 47.6445C14.0999 47.8245 13.75 47.9545 13.55 48.2745V48.2945Z" fill="#8272B3"/>
<path d="M22.6499 52.9046C22.8299 53.2246 23.1599 53.3146 23.4299 53.4646C27.8599 55.8746 24.9001 54.0546 29.3201 56.4846C30.0101 56.8646 30.5099 56.8546 31.1899 56.4346C35.0399 54.0446 38.9 51.6746 42.79 49.3446C45.34 47.8146 46.4999 45.6146 46.4199 42.6546C46.2199 34.8946 46.36 40.9646 46.22 33.2046C46.2 32.3546 45.9199 31.9246 45.1899 31.5446C40.7199 29.2146 43.67 31.0346 39.22 28.6746C38.88 28.4946 38.5601 28.2546 38.1201 28.1846C37.9501 28.6246 38.03 29.0146 38.04 29.4046C38.21 37.1246 38.03 31.0246 38.24 38.7446C38.32 41.7646 37.12 43.9546 34.54 45.4946C30.84 47.7046 27.18 49.9946 23.51 52.2546C23.21 52.4346 22.8599 52.5646 22.6599 52.8846L22.6499 52.9046Z" fill="url(#paint3_linear_11_110)"/>
<path opacity="0.56" d="M50.26 16.8646C50.8 16.5546 51.28 16.2746 51.76 16.0046C53.11 15.2346 51.5899 16.1846 52.9299 15.4046C53.1699 15.2646 53.3601 15.2346 53.6201 15.3946C55.1901 16.3246 56.7701 17.2246 58.3501 18.1446C59.2801 18.6846 59.75 19.4846 59.75 20.5646C59.75 23.6846 59.75 26.8046 59.75 29.9246C59.75 30.1846 59.68 30.3346 59.45 30.4646C57.66 31.4546 58.74 30.7446 56.95 31.7546C56.86 31.8046 56.7699 31.9046 56.6399 31.8646C56.5799 31.7146 56.6101 31.5646 56.6101 31.4046C56.6101 28.3846 56.6101 25.3646 56.6101 22.3446C56.6101 22.0046 56.59 21.6646 56.49 21.3346C56.27 20.6346 55.83 20.1146 55.2 19.7546C53.71 18.8946 52.22 18.0246 50.73 17.1546C50.6 17.0746 50.46 16.9946 50.27 16.8746L50.26 16.8646Z" fill="white"/>
<defs>
<linearGradient id="paint0_linear_11_110" x1="59.54" y1="24.7845" x2="25.1699" y2="24.7845" gradientUnits="userSpaceOnUse">
<stop stop-color="#FFD649"/>
<stop offset="1" stop-color="#FDC148"/>
</linearGradient>
<linearGradient id="paint1_linear_11_110" x1="0.24" y1="22.9544" x2="23.1299" y2="22.9544" gradientUnits="userSpaceOnUse">
<stop stop-color="#FFD649"/>
<stop offset="1" stop-color="#FDC148"/>
</linearGradient>
<linearGradient id="paint2_linear_11_110" x1="25.5112" y1="30.5537" x2="3.97691" y2="31.0536" gradientUnits="userSpaceOnUse">
<stop stop-color="#5EC6CC"/>
<stop offset="0.13" stop-color="#56C2CE"/>
<stop offset="0.31" stop-color="#43B8D5"/>
<stop offset="0.51" stop-color="#26A9E0"/>
<stop offset="0.53" stop-color="#29AADE"/>
<stop offset="0.84" stop-color="#4FBED1"/>
<stop offset="1" stop-color="#5EC6CC"/>
</linearGradient>
<linearGradient id="paint3_linear_11_110" x1="22.6499" y1="42.4746" x2="46.4099" y2="42.4746" gradientUnits="userSpaceOnUse">
<stop stop-color="#5EC6CC"/>
<stop offset="0.13" stop-color="#56C2CE"/>
<stop offset="0.31" stop-color="#43B8D5"/>
<stop offset="0.51" stop-color="#26A9E0"/>
<stop offset="0.53" stop-color="#29AADE"/>
<stop offset="0.84" stop-color="#4FBED1"/>
<stop offset="1" stop-color="#5EC6CC"/>
</linearGradient>
</defs>
</svg>
