<svg width="32" height="32" viewBox="0 0 32 32" fill="none" xmlns="http://www.w3.org/2000/svg">
<path opacity="0.28" d="M13.9465 20.9348L28.5974 18.9009C29.1598 18.9009 29.6191 18.4416 29.6191 17.8792V7.175C29.6191 6.6126 29.1598 6.15332 28.5974 6.15332L13.9465 8.1873C13.3841 8.1873 12.9248 8.64658 12.9248 9.20898V19.9132C12.9248 20.4756 13.3841 20.9348 13.9465 20.9348Z" fill="#8173B3"/>
<path d="M16.3274 21.824L30.9783 19.79C31.5407 19.79 32 19.3307 32 18.7683V8.06416C32 7.50176 31.5407 7.04248 30.9783 7.04248L16.3274 9.07646C15.765 9.07646 15.3057 9.53575 15.3057 10.0981V20.8023C15.3057 21.3647 15.765 21.824 16.3274 21.824Z" fill="url(#paint0_linear_39_36550)"/>
<path opacity="0.68" d="M14.2651 22.7069C11.9498 22.0977 9.6252 21.4884 7.30993 20.8698C4.53535 20.1293 2.35131 17.486 2.18259 14.6741C2.05136 12.4339 3.54176 10.6436 5.69768 10.5499C6.05387 10.5311 6.1851 10.428 6.24134 10.0812C6.67253 7.28801 8.93155 5.93827 11.8561 6.80061C13.7683 7.363 15.2493 8.67525 16.2617 10.5686C16.4773 10.9717 16.6272 11.1404 17.0866 11.1873C19.7018 11.4778 21.9327 13.8493 22.1483 16.53C22.167 16.8018 22.2514 16.9143 22.4951 17.0361C24.3136 18.0297 25.5603 20.0824 25.429 21.8446C25.2978 23.7473 23.873 24.9284 21.9796 24.7034C21.7452 24.6753 21.4921 24.6003 21.2578 24.5347C18.9238 23.9254 16.5898 23.3068 14.2557 22.6882L14.2651 22.7069Z" fill="#5EC6CB"/>
<path d="M12.0905 23.8224C9.77528 23.2131 7.45064 22.6039 5.13537 21.9853C2.36079 21.2448 0.176753 18.6015 0.00802932 15.7896C-0.123201 13.5494 1.3672 11.7591 3.52311 11.6654C3.87931 11.6466 4.01054 11.5435 4.06678 11.1967C4.49797 8.40349 6.75699 7.05375 9.68154 7.91608C11.5938 8.47848 13.0748 9.79072 14.0871 11.6841C14.3027 12.0872 14.4527 12.2559 14.912 12.3027C17.5272 12.5933 19.7581 14.9647 19.9737 17.6455C19.9925 17.9173 20.0768 18.0298 20.3205 18.1516C22.139 19.1452 23.3857 21.1979 23.2545 22.9601C23.1232 24.8628 21.6985 26.0438 19.805 25.8189C19.5707 25.7908 19.3176 25.7158 19.0832 25.6502C16.7492 25.0409 14.4152 24.4223 12.0812 23.8036L12.0905 23.8224Z" fill="#5EC6CB"/>
<path d="M28.1192 14.5412L30.2095 14.2506C30.2939 14.2506 30.3595 14.185 30.3595 14.1007V12.5728C30.3595 12.4885 30.2939 12.4229 30.2095 12.4229L28.1192 12.7134C28.0348 12.7134 27.9692 12.779 27.9692 12.8634V14.3912C27.9692 14.4756 28.0348 14.5412 28.1192 14.5412Z" fill="#8173B3"/>
<defs>
<linearGradient id="paint0_linear_39_36550" x1="15.3057" y1="14.4286" x2="32" y2="14.4286" gradientUnits="userSpaceOnUse">
<stop stop-color="#FFD549"/>
<stop offset="1" stop-color="#FCC048"/>
</linearGradient>
</defs>
</svg>
