<svg width="32" height="32" viewBox="0 0 32 32" fill="none" xmlns="http://www.w3.org/2000/svg">
<path d="M31.1302 24.8051C30.6102 24.7351 7.49023 21.8251 7.49023 21.8251L7.52023 5.17511C7.52023 4.37511 8.17023 3.7251 8.97023 3.7251L29.6802 6.6051C30.4802 6.6051 31.1302 7.25511 31.1302 8.05511C31.1302 8.05511 31.1302 24.2651 31.1302 24.8051Z" fill="url(#paint0_linear_39_36634)"/>
<path d="M27.7601 26.465C27.2401 26.395 4.12012 23.485 4.12012 23.485L4.15012 6.83502C4.15012 6.03502 4.80012 5.38501 5.60012 5.38501L26.3101 8.26501C27.1101 8.26501 27.7601 8.91503 27.7601 9.71503C27.7601 9.71503 27.7601 25.925 27.7601 26.465Z" fill="#8272B3"/>
<path d="M24.5101 28.2751C23.9901 28.2051 0.870117 25.2951 0.870117 25.2951L0.900116 8.64508C0.900116 7.84508 1.55012 7.19507 2.35012 7.19507L23.0601 10.0751C23.8601 10.0751 24.5101 10.7251 24.5101 11.5251C24.5101 11.5251 24.5101 27.7351 24.5101 28.2751Z" fill="#5EC6CC"/>
<path opacity="0.8" d="M22.4102 21.815L14.8202 20.805C14.7602 20.805 14.7002 20.705 14.7002 20.585V12.125C14.7002 12.005 14.7502 11.905 14.8202 11.905L22.2802 12.895C22.4202 12.915 22.5302 13.035 22.5302 13.165V21.595C22.5302 21.715 22.4802 21.815 22.4102 21.815Z" fill="white"/>
<path opacity="0.58" d="M11.9302 23.835L3.23022 22.555V21.645L11.9302 22.925V23.835Z" fill="white"/>
<path opacity="0.58" d="M8.25006 22.1051L3.31006 21.4151V20.4951L8.25006 21.1951V22.1051Z" fill="white"/>
<path opacity="0.58" d="M8.22003 15.6252L3.28003 14.9352V14.0151L8.22003 14.7151V15.6252Z" fill="white"/>
<path opacity="0.58" d="M11.99 12.6851L3.28003 11.4051V10.4851L11.99 11.7651V12.6851Z" fill="white"/>
<path opacity="0.58" d="M8.22003 13.2252L3.28003 12.5252V11.6152L8.22003 12.3152V13.2252Z" fill="white"/>
<path opacity="0.58" d="M13.9002 16.4052L10.9402 15.9352V15.0151L13.9002 15.4851V16.4052Z" fill="white"/>
<path opacity="0.58" d="M8.18023 17.3451L3.24023 16.6451V15.7351L8.18023 16.4351V17.3451Z" fill="white"/>
<path opacity="0.58" d="M13.8601 18.1151L10.9001 17.6451V16.7351L13.8601 17.2051V18.1151Z" fill="white"/>
<path opacity="0.58" d="M8.22003 19.0651L3.28003 18.3651V17.4451L8.22003 18.1451V19.0651Z" fill="white"/>
<path opacity="0.58" d="M13.9002 19.8351L10.9402 19.3651V18.4451L13.9002 18.9151V19.8351Z" fill="white"/>
<path opacity="0.58" d="M22.1302 25.1451L16.9802 24.3251V22.7351L22.1302 23.5551V25.1451Z" fill="white"/>
<defs>
<linearGradient id="paint0_linear_39_36634" x1="7.49023" y1="14.2651" x2="31.1302" y2="14.2651" gradientUnits="userSpaceOnUse">
<stop stop-color="#FFD649"/>
<stop offset="1" stop-color="#FDC148"/>
</linearGradient>
</defs>
</svg>
