<svg width="40" height="40" viewBox="0 0 40 40" fill="none" xmlns="http://www.w3.org/2000/svg">
<path d="M17.7021 19.2793L12.3943 17.1726V12.3208L17.7021 14.4275V19.2793Z" fill="#5EC6CC"/>
<path d="M17.6928 19.2883L12.2847 17.0903L7.58789 19.7078L13.0051 21.9056L17.6928 19.2883Z" fill="url(#paint0_linear_23_1600)"/>
<path d="M12.9688 21.9243L7.62451 19.7174V14.8564L12.9688 17.0634V21.9243Z" fill="url(#paint1_linear_23_1600)"/>
<path opacity="0.6" d="M17.7017 14.4275L12.3939 12.3208L7.6333 14.8379L12.9593 17.0542L17.7017 14.4275Z" fill="#8272B3"/>
<path d="M24.0038 22.2515L18.696 20.1448V15.293L24.0038 17.3997V22.2515Z" fill="#5EC6CC"/>
<path d="M24.0035 22.2607L18.5863 20.0718L13.8987 22.6893L19.3068 24.8871L24.0035 22.2607Z" fill="url(#paint2_linear_23_1600)"/>
<path d="M19.2797 24.9061L13.9263 22.69V17.8291L19.2797 20.036V24.9061Z" fill="url(#paint3_linear_23_1600)"/>
<path opacity="0.6" d="M24.0036 17.3997L18.6958 15.293L13.9443 17.8192L19.2613 20.0261L24.0036 17.3997Z" fill="#8272B3"/>
<path d="M18.8237 12.9136L13.5068 10.8069V5.95508L18.8237 8.06181V12.9136Z" fill="#5EC6CC"/>
<path d="M18.8146 12.9231L13.3974 10.7251L8.70972 13.3517L14.127 15.5495L18.8146 12.9231Z" fill="url(#paint4_linear_23_1600)"/>
<path d="M14.0902 15.5581L8.73682 13.3512V8.49023L14.0902 10.6972V15.5581Z" fill="url(#paint5_linear_23_1600)"/>
<path opacity="0.6" d="M18.8238 8.06181L13.5069 5.95508L8.75537 8.48128L14.0723 10.6882L18.8238 8.06181Z" fill="#8272B3"/>
<path d="M10.114 23.1104L4.80615 21.0037V16.1519L10.114 18.2586V23.1104Z" fill="#5EC6CC"/>
<path d="M10.114 23.1193L4.69674 20.9307L0 23.5479L5.41725 25.7457L10.114 23.1193Z" fill="url(#paint6_linear_23_1600)"/>
<path d="M5.3809 25.7544L0.0366211 23.5475V18.6865L5.3809 20.8937V25.7544Z" fill="url(#paint7_linear_23_1600)"/>
<path opacity="0.6" d="M10.114 18.2586L4.80615 16.1519L0.0546875 18.6781L5.37158 20.8852L10.114 18.2586Z" fill="#8272B3"/>
<path d="M18.0667 25.6997L12.7498 23.593V18.7412L18.0667 20.8479V25.6997Z" fill="#5EC6CC"/>
<path d="M18.0576 25.7088L12.6403 23.5107L7.95264 26.1374L13.3699 28.326L18.0576 25.7088Z" fill="url(#paint8_linear_23_1600)"/>
<path d="M13.3336 28.3447L7.98022 26.1378V21.2769L13.3336 23.4838V28.3447Z" fill="url(#paint9_linear_23_1600)"/>
<path opacity="0.6" d="M18.0667 20.8479L12.7498 18.7412L7.99829 21.2674L13.3152 23.4743L18.0667 20.8479Z" fill="#8272B3"/>
<path d="M16.352 19.0879L11.0442 16.9812V12.1294L16.352 14.2361V19.0879Z" fill="#5EC6CC"/>
<path d="M16.3523 19.0971L10.9351 16.9082L6.23828 19.5257L11.6555 21.7235L16.3523 19.0971Z" fill="url(#paint10_linear_23_1600)"/>
<path d="M11.619 21.742L6.27466 19.526V14.665L11.619 16.872V21.742Z" fill="url(#paint11_linear_23_1600)"/>
<path opacity="0.6" d="M16.3525 14.2361L11.0447 12.1294L6.29321 14.6556L11.6102 16.8625L16.3525 14.2361Z" fill="#8272B3"/>
<path opacity="0.74" d="M13.9898 32.2205L26.4294 25.6086C26.9948 25.6086 27.46 25.1528 27.46 24.5782V9.61246C27.46 9.04703 27.004 8.58203 26.4294 8.58203L13.9898 15.1939C13.4244 15.1939 12.9592 15.6498 12.9592 16.2243V31.1901C12.9592 31.7555 13.4152 32.2205 13.9898 32.2205Z" fill="#8272B3"/>
<path d="M40 28.2083L28.2717 23.548V12.8413L40 17.4925V28.2083Z" fill="#5EC6CC"/>
<path d="M39.9909 28.226L28.0346 23.3833L17.6743 29.1651L29.6306 34.0078L39.9909 28.226Z" fill="url(#paint12_linear_23_1600)"/>
<path d="M29.5577 34.0445L17.7473 29.1745V18.4404L29.5577 23.3105V34.0445Z" fill="url(#paint13_linear_23_1600)"/>
<path opacity="0.6" d="M40.0001 17.4925L28.2719 12.8413L17.7839 18.4136L29.5304 23.2926L40.0001 17.4925Z" fill="#8272B3"/>
<path d="M21.8239 25.2717C21.9242 25.2808 22.0062 25.3448 22.0701 25.4269C22.3528 25.7552 22.6446 26.0925 22.9273 26.4208C22.9821 26.4847 23.0095 26.4847 23.0642 26.4391C23.7299 25.8736 24.3957 25.3084 25.0614 24.752C25.2621 24.5879 25.4171 24.606 25.6177 24.834C25.7363 24.9799 25.864 25.1169 25.9826 25.2628C26.1285 25.4361 26.1285 25.6092 25.9826 25.7368C25.0706 26.512 24.1494 27.2781 23.2283 28.0533C23.0824 28.181 22.9 28.1538 22.7541 27.9805C22.2251 27.3695 21.6962 26.7584 21.1763 26.1474C21.0304 25.9832 21.0304 25.8008 21.1763 25.6823C21.3131 25.5637 21.4591 25.445 21.5959 25.3265C21.6597 25.2718 21.7327 25.2535 21.8239 25.2717Z" fill="white"/>
<defs>
<linearGradient id="paint0_linear_23_1600" x1="14.8109" y1="18.2303" x2="9.70375" y2="21.2126" gradientUnits="userSpaceOnUse">
<stop stop-color="#26A9E0"/>
<stop offset="0.41" stop-color="#5EC6CC"/>
</linearGradient>
<linearGradient id="paint1_linear_23_1600" x1="9.77681" y1="16.3156" x2="11.4731" y2="23.0369" gradientUnits="userSpaceOnUse">
<stop stop-color="#FFD649"/>
<stop offset="1" stop-color="#FDC148"/>
</linearGradient>
<linearGradient id="paint2_linear_23_1600" x1="21.1217" y1="21.2118" x2="16.0145" y2="24.1849" gradientUnits="userSpaceOnUse">
<stop stop-color="#26A9E0"/>
<stop offset="0.41" stop-color="#5EC6CC"/>
</linearGradient>
<linearGradient id="paint3_linear_23_1600" x1="16.0786" y1="19.2974" x2="17.7748" y2="26.0187" gradientUnits="userSpaceOnUse">
<stop stop-color="#FFD649"/>
<stop offset="1" stop-color="#FDC148"/>
</linearGradient>
<linearGradient id="paint4_linear_23_1600" x1="15.9327" y1="11.8742" x2="10.8255" y2="14.8473" gradientUnits="userSpaceOnUse">
<stop stop-color="#26A9E0"/>
<stop offset="0.41" stop-color="#5EC6CC"/>
</linearGradient>
<linearGradient id="paint5_linear_23_1600" x1="10.8982" y1="9.95852" x2="12.5854" y2="16.6798" gradientUnits="userSpaceOnUse">
<stop stop-color="#FFD649"/>
<stop offset="1" stop-color="#FDC148"/>
</linearGradient>
<linearGradient id="paint6_linear_23_1600" x1="7.22298" y1="22.0706" x2="2.11596" y2="25.0438" gradientUnits="userSpaceOnUse">
<stop stop-color="#26A9E0"/>
<stop offset="0.41" stop-color="#5EC6CC"/>
</linearGradient>
<linearGradient id="paint7_linear_23_1600" x1="2.18892" y1="20.1548" x2="3.88519" y2="26.8761" gradientUnits="userSpaceOnUse">
<stop stop-color="#FFD649"/>
<stop offset="1" stop-color="#FDC148"/>
</linearGradient>
<linearGradient id="paint8_linear_23_1600" x1="15.1756" y1="24.6507" x2="10.0685" y2="27.633" gradientUnits="userSpaceOnUse">
<stop stop-color="#26A9E0"/>
<stop offset="0.41" stop-color="#5EC6CC"/>
</linearGradient>
<linearGradient id="paint9_linear_23_1600" x1="10.1417" y1="22.736" x2="11.8288" y2="29.4573" gradientUnits="userSpaceOnUse">
<stop stop-color="#FFD649"/>
<stop offset="1" stop-color="#FDC148"/>
</linearGradient>
<linearGradient id="paint10_linear_23_1600" x1="13.4613" y1="18.0482" x2="8.35415" y2="21.0213" gradientUnits="userSpaceOnUse">
<stop stop-color="#26A9E0"/>
<stop offset="0.41" stop-color="#5EC6CC"/>
</linearGradient>
<linearGradient id="paint11_linear_23_1600" x1="8.42698" y1="16.1333" x2="10.1232" y2="22.8547" gradientUnits="userSpaceOnUse">
<stop stop-color="#FFD649"/>
<stop offset="1" stop-color="#FDC148"/>
</linearGradient>
<linearGradient id="paint12_linear_23_1600" x1="33.6251" y1="25.9003" x2="22.3439" y2="32.4759" gradientUnits="userSpaceOnUse">
<stop stop-color="#26A9E0"/>
<stop offset="0.41" stop-color="#5EC6CC"/>
</linearGradient>
<linearGradient id="paint13_linear_23_1600" x1="22.4988" y1="21.678" x2="26.2379" y2="36.5069" gradientUnits="userSpaceOnUse">
<stop stop-color="#FFD649"/>
<stop offset="1" stop-color="#FDC148"/>
</linearGradient>
</defs>
</svg>
