<svg width="60" height="60" viewBox="0 0 60 60" fill="none" xmlns="http://www.w3.org/2000/svg">
<path d="M52.8649 41.1997C52.6449 41.6097 52.2349 41.7397 51.8949 41.9297C46.3749 45.0997 50.0449 42.7197 44.5449 45.9197C43.6849 46.4197 43.0549 46.4297 42.1849 45.9197C37.2549 43.0097 32.2949 40.1297 27.3249 37.2997C24.0649 35.4397 22.5249 32.6897 22.5349 28.9497C22.5649 19.1397 22.5649 27.8298 22.5149 18.0098C22.5149 16.9398 22.8549 16.3898 23.7649 15.8798C29.3449 12.7998 25.6649 15.1897 31.2249 12.0797C31.6549 11.8397 32.0549 11.5297 32.6049 11.4297C32.8349 11.9797 32.7349 12.4797 32.7349 12.9697C32.7549 22.7397 32.7949 16.3297 32.7549 26.0997C32.7349 29.9197 34.3149 30.3197 37.6249 32.1897C42.3649 34.8797 47.0549 37.6597 51.7649 40.4097C52.1449 40.6297 52.5949 40.7797 52.8649 41.1897V41.1997Z" fill="url(#paint0_linear_20_1142)"/>
<path d="M22.425 16.4592C24.165 15.4592 25.705 14.5692 27.255 13.6792C31.585 11.1992 26.715 14.2592 31.025 11.7492C31.805 11.2892 32.405 11.1992 33.255 11.6992C38.295 14.6892 43.385 17.5992 48.455 20.5392C51.445 22.2692 52.955 24.8392 52.945 28.3292C52.925 38.3592 52.925 39.0792 52.945 49.1092C52.945 49.9292 52.725 50.4192 51.975 50.8392C46.205 54.0392 49.685 51.7492 43.925 54.9692C43.625 55.1392 43.345 55.4392 42.915 55.3292C42.705 54.8492 42.815 54.3492 42.815 53.8592C42.795 44.1492 42.785 39.0892 42.785 29.3792C42.745 31.0192 42.615 31.4858 42.395 30.7791C41.705 28.5291 40.285 26.8692 38.245 25.6892C33.445 22.9192 28.665 20.1192 23.875 17.3392C23.445 17.0892 23.025 16.8192 22.415 16.4492L22.425 16.4592Z" fill="#8272B3"/>
<path d="M37.4049 51.2395C37.1849 51.6495 36.7749 51.7795 36.4349 51.9695C30.9149 55.1395 34.5849 52.7594 29.0849 55.9594C28.2249 56.4594 27.5949 56.4694 26.7249 55.9594C21.7949 53.0494 16.8349 50.1694 11.8649 47.3394C8.60493 45.4794 7.06492 42.7295 7.07492 38.9895C7.10492 29.1795 7.10493 17.4195 7.05493 7.60947C7.05493 6.53947 7.39493 5.98946 8.30493 5.47946C10.5249 4.24946 9.78492 4.66941 10.2149 4.42941C10.2149 4.42941 11.0649 4.00942 11.2449 3.93942C11.2449 3.93942 11.3549 3.85942 11.4749 3.80942C11.8849 3.64942 12.0149 3.55947 12.8849 3.85947C13.7949 4.16947 16.1549 5.4194 16.1549 5.4194C16.1549 5.4194 17.2949 5.80944 17.2949 7.45944C17.2949 17.2294 17.3449 24.0394 17.2949 33.7994C17.2749 37.6194 18.8549 40.3495 22.1649 42.2195C26.9049 44.9095 31.5949 47.6894 36.3049 50.4394C36.6849 50.6594 37.1349 50.8095 37.4049 51.2195V51.2395Z" fill="url(#paint1_linear_20_1142)"/>
<defs>
<linearGradient id="paint0_linear_20_1142" x1="25.7749" y1="19.8097" x2="43.0549" y2="40.9797" gradientUnits="userSpaceOnUse">
<stop stop-color="#FFD649"/>
<stop offset="1" stop-color="#FDC148"/>
</linearGradient>
<linearGradient id="paint1_linear_20_1142" x1="9.15493" y1="16.1794" x2="24.9949" y2="52.6194" gradientUnits="userSpaceOnUse">
<stop stop-color="#5EC6CC"/>
<stop offset="0.13" stop-color="#56C2CE"/>
<stop offset="0.31" stop-color="#43B8D5"/>
<stop offset="0.51" stop-color="#26A9E0"/>
<stop offset="0.53" stop-color="#29AADE"/>
<stop offset="0.84" stop-color="#4FBED1"/>
<stop offset="1" stop-color="#5EC6CC"/>
</linearGradient>
</defs>
</svg>
