<svg width="41" height="40" viewBox="0 0 41 40" fill="none" xmlns="http://www.w3.org/2000/svg">
<path d="M25.8072 26.9353C25.8072 26.9353 23.7458 32.1673 19.8355 31.176C15.9331 30.1846 16.4838 13.8354 10.6537 12.0808C7.36499 11.0895 4.35956 17.2579 1 16.4711" stroke="#5EC6CC" stroke-width="2" stroke-miterlimit="10"/>
<path d="M38.4746 25.1495L25.8074 20.114V8.54053L38.4746 13.568V25.1495Z" fill="#5EC6CC"/>
<path d="M38.4668 25.1653L25.5399 19.9331L14.344 26.188L27.2708 31.4202L38.4668 25.1653Z" fill="url(#paint0_linear_20_458)"/>
<path d="M27.192 31.4595L14.4304 26.1958V14.5908L27.192 19.8622V31.4595Z" fill="#8272B3"/>
<path d="M38.4745 13.568L25.8073 8.54053L14.4619 14.5672L27.1527 19.8388L38.4745 13.568Z" fill="url(#paint1_linear_20_458)"/>
<path d="M40.339 25.0711L34.3123 22.585V18.9185L40.339 21.4048V25.0711Z" fill="url(#paint2_linear_20_458)"/>
<path d="M40.339 21.4041L34.3123 18.9178L34.9731 18.7368L40.9999 21.2232L40.339 21.4041Z" fill="url(#paint3_linear_20_458)"/>
<path d="M40.9997 24.89L40.3389 25.0709V21.4046L40.9997 21.2236V24.89Z" fill="url(#paint4_linear_20_458)"/>
<path d="M35.3426 27.8719L29.3159 25.3856V21.7192L35.3426 24.2054V27.8719Z" fill="url(#paint5_linear_20_458)"/>
<path d="M35.3426 24.2052L29.3159 21.719L29.9768 21.5381L36.0114 24.0242L35.3426 24.2052Z" fill="url(#paint6_linear_20_458)"/>
<path d="M36.0119 27.6904L35.343 27.8714V24.2049L36.0119 24.0239V27.6904Z" fill="url(#paint7_linear_20_458)"/>
<path opacity="0.5" d="M18.6711 25.2596L17.2864 24.6931V19.1069L18.6711 19.6734V25.2596Z" fill="white"/>
<path opacity="0.5" d="M23.1636 26.7546L21.7788 26.1881V20.5942L23.1636 21.1686V26.7546Z" fill="white"/>
<defs>
<linearGradient id="paint0_linear_20_458" x1="31.5824" y1="22.6554" x2="19.3951" y2="29.76" gradientUnits="userSpaceOnUse">
<stop stop-color="#26A9E0"/>
<stop offset="0.41" stop-color="#5EC6CC"/>
</linearGradient>
<linearGradient id="paint1_linear_20_458" x1="14.4619" y1="14.1896" x2="38.4745" y2="14.1896" gradientUnits="userSpaceOnUse">
<stop stop-color="#FFD649"/>
<stop offset="1" stop-color="#FDC148"/>
</linearGradient>
<linearGradient id="paint2_linear_20_458" x1="34.3123" y1="21.9948" x2="40.339" y2="21.9948" gradientUnits="userSpaceOnUse">
<stop stop-color="#FFD649"/>
<stop offset="1" stop-color="#FDC148"/>
</linearGradient>
<linearGradient id="paint3_linear_20_458" x1="34.3123" y1="20.0744" x2="40.9999" y2="20.0744" gradientUnits="userSpaceOnUse">
<stop stop-color="#FFD649"/>
<stop offset="1" stop-color="#FDC148"/>
</linearGradient>
<linearGradient id="paint4_linear_20_458" x1="40.3389" y1="23.1433" x2="40.9997" y2="23.1433" gradientUnits="userSpaceOnUse">
<stop stop-color="#FFD649"/>
<stop offset="1" stop-color="#FDC148"/>
</linearGradient>
<linearGradient id="paint5_linear_20_458" x1="29.3159" y1="24.7956" x2="35.3426" y2="24.7956" gradientUnits="userSpaceOnUse">
<stop stop-color="#FFD649"/>
<stop offset="1" stop-color="#FDC148"/>
</linearGradient>
<linearGradient id="paint6_linear_20_458" x1="29.3159" y1="22.8756" x2="36.0114" y2="22.8756" gradientUnits="userSpaceOnUse">
<stop stop-color="#FFD649"/>
<stop offset="1" stop-color="#FDC148"/>
</linearGradient>
<linearGradient id="paint7_linear_20_458" x1="35.343" y1="25.9516" x2="36.0119" y2="25.9516" gradientUnits="userSpaceOnUse">
<stop stop-color="#FFD649"/>
<stop offset="1" stop-color="#FDC148"/>
</linearGradient>
</defs>
</svg>
