<svg width="40" height="40" viewBox="0 0 40 40" fill="none" xmlns="http://www.w3.org/2000/svg">
<path opacity="0.4" d="M34.4683 29.2622L12.5535 26.2161C11.7124 26.2161 11.0217 25.5343 11.0217 24.6843V8.67557C11.0217 7.8344 11.7035 7.14355 12.5535 7.14355L34.4683 10.1897C35.3095 10.1897 36.0001 10.8714 36.0001 11.7215V27.7302C36.0001 28.5713 35.3183 29.2622 34.4683 29.2622Z" fill="url(#paint0_linear_19_435)"/>
<path opacity="0.5" d="M30.953 30.9534L9.03826 27.9075C8.19709 27.9075 7.50635 27.2257 7.50635 26.3757V10.3668C7.50635 9.52559 8.18823 8.83496 9.03826 8.83496L30.953 11.8808C31.7942 11.8808 32.4848 12.5626 32.4848 13.4126V29.4216C32.4848 30.2627 31.8031 30.9534 30.953 30.9534Z" fill="#8272B3"/>
<path d="M27.4466 32.8567L5.5318 29.8108C4.69063 29.8108 4 29.129 4 28.279V12.2701C4 11.4289 4.68178 10.7383 5.5318 10.7383L27.4466 13.7842C28.2877 13.7842 28.9784 14.4662 28.9784 15.3162V31.3249C28.9784 32.1661 28.2966 32.8567 27.4466 32.8567Z" fill="#5EC6CC"/>
<path d="M4.02645 13.2705V12.2965C4.0176 11.4553 4.69936 10.7646 5.54053 10.7646L27.4553 13.8105C28.2965 13.8105 28.9871 14.4923 28.9871 15.3423V16.5112L4.02645 13.2794V13.2705Z" fill="#8272B3"/>
<path d="M26.1184 13.7578L27.3049 13.926C28.146 13.926 28.8368 14.6078 28.8368 15.4578V16.6266L26.3044 16.2989L26.1184 13.7667V13.7578Z" fill="url(#paint1_linear_19_435)"/>
<path d="M21.4522 26.4818L14.4749 25.5964V24.5073L21.4522 25.4016V26.4818Z" fill="url(#paint2_linear_19_435)"/>
<path d="M10.5256 17.9196C10.8444 17.9461 11.1277 17.9639 11.4022 17.9816C12.1902 18.0436 11.2782 18.008 12.0663 18.0612C12.2079 18.07 12.2966 18.1143 12.3585 18.2559C12.757 19.0971 13.1643 19.9295 13.5627 20.7618C13.8018 21.2577 13.7664 21.727 13.4565 22.1786C12.5622 23.4891 12.5001 23.5863 11.6058 24.8968C11.535 25.003 11.4642 25.0475 11.3225 25.0386C10.2866 24.9412 10.9418 24.9499 9.89698 24.8613C9.84385 24.8613 9.78182 24.8704 9.73755 24.8172C9.75526 24.7375 9.80839 24.6756 9.85266 24.6136C10.7115 23.3386 11.1631 22.6744 12.0308 21.4082C11.8773 21.6207 11.8184 21.6708 11.8538 21.5586C11.96 21.2045 11.9246 20.8592 11.7653 20.5227C11.3845 19.7347 11.0037 18.9379 10.623 18.1498C10.5876 18.079 10.561 18.0081 10.5079 17.9019L10.5256 17.9196Z" fill="url(#paint3_linear_19_435)"/>
<defs>
<linearGradient id="paint0_linear_19_435" x1="11.0306" y1="18.2117" x2="36.0001" y2="18.2117" gradientUnits="userSpaceOnUse">
<stop stop-color="#FFD649"/>
<stop offset="1" stop-color="#FDC148"/>
</linearGradient>
<linearGradient id="paint1_linear_19_435" x1="26.1184" y1="15.1922" x2="28.8368" y2="15.1922" gradientUnits="userSpaceOnUse">
<stop stop-color="#FFD649"/>
<stop offset="1" stop-color="#FDC148"/>
</linearGradient>
<linearGradient id="paint2_linear_19_435" x1="14.4749" y1="25.499" x2="21.4522" y2="25.499" gradientUnits="userSpaceOnUse">
<stop stop-color="#FFD649"/>
<stop offset="1" stop-color="#FDC148"/>
</linearGradient>
<linearGradient id="paint3_linear_19_435" x1="9.94094" y1="21.4435" x2="13.5641" y2="21.7854" gradientUnits="userSpaceOnUse">
<stop stop-color="#FFD649"/>
<stop offset="1" stop-color="#FDC148"/>
</linearGradient>
</defs>
</svg>
