<svg width="40" height="40" viewBox="0 0 40 40" fill="none" xmlns="http://www.w3.org/2000/svg">
<path opacity="0.4" d="M34.4745 29.2549L12.5499 26.2128C11.7073 26.2128 11.0244 25.5299 11.0244 24.6873V8.66952C11.0244 7.82694 11.7073 7.14404 12.5499 7.14404L34.4745 10.1861C35.3171 10.1861 36 10.869 36 11.7116V27.7294C36 28.572 35.3171 29.2549 34.4745 29.2549Z" fill="#5EC6CC"/>
<path opacity="0.5" d="M30.9623 30.9494L9.03771 27.9071C8.19514 27.9071 7.51221 27.2242 7.51221 26.3816V10.3639C7.51221 9.52128 8.19514 8.83838 9.03771 8.83838L30.9623 11.8807C31.8049 11.8807 32.4878 12.5636 32.4878 13.4061V29.4239C32.4878 30.2665 31.8049 30.9494 30.9623 30.9494Z" fill="#8272B3"/>
<path d="M27.4501 32.8559L5.5255 29.8139C4.68293 29.8139 4 29.131 4 28.2884V12.2706C4 11.428 4.68293 10.7451 5.5255 10.7451L27.4501 13.7872C28.2927 13.7872 28.9756 14.4701 28.9756 15.3127V31.3305C28.9756 32.173 28.2927 32.8559 27.4501 32.8559Z" fill="url(#paint0_linear_23_1539)"/>
<path d="M26.1285 13.7423L27.317 13.9107C28.1595 13.9107 28.8425 14.5939 28.8425 15.4364V16.5981L26.3059 16.2701L26.1196 13.7334L26.1285 13.7423Z" fill="#8272B3"/>
<path d="M10.386 24.3767C10.182 24.3412 9.96912 24.3058 9.76513 24.2792C9.6587 24.2615 9.61435 24.2347 9.61435 24.1194C9.61435 23.9598 9.62322 23.8092 9.61435 23.6496C9.60549 23.5165 9.66756 23.5075 9.77399 23.5253C10.182 23.5962 10.59 23.6494 10.9979 23.7204C11.131 23.747 11.1842 23.7204 11.1842 23.5697C11.2019 23.002 11.2019 23.002 10.6432 22.9133C10.3505 22.869 10.0578 22.8156 9.77399 22.7802C9.65869 22.7624 9.62322 22.727 9.61435 22.6028C9.58775 21.9909 9.57887 21.991 10.1908 22.0886C10.4658 22.1329 10.7407 22.1683 11.0157 22.2215C11.1399 22.2481 11.1842 22.2216 11.1931 22.0797C11.2197 21.5032 11.2197 21.5032 10.6343 21.4145C10.3505 21.3702 10.0667 21.3168 9.78287 21.2813C9.64983 21.2636 9.61435 21.2193 9.61435 21.0862C9.59662 20.492 9.59662 20.4919 10.182 20.5895C10.4658 20.6339 10.7496 20.6783 11.0334 20.7227C11.1487 20.7404 11.1842 20.7137 11.1931 20.5895C11.2285 20.0041 11.2285 20.0041 10.6432 19.9154C10.3505 19.8711 10.0578 19.818 9.77399 19.7825C9.64982 19.7648 9.62322 19.7205 9.62322 19.6052C9.59661 19.002 9.59662 19.002 10.182 19.0907C10.4658 19.135 10.7496 19.1706 11.0334 19.2238C11.1665 19.2504 11.2019 19.206 11.2019 19.0818C11.2197 18.5053 11.2197 18.5053 10.6432 18.4166C10.3682 18.3723 10.0933 18.328 9.81834 18.2925C9.6853 18.2748 9.63208 18.2482 9.63208 18.0886C9.62321 17.5032 9.61435 17.5031 10.2086 17.5918C10.4835 17.6362 10.7585 17.6716 11.0334 17.7248C11.1842 17.7514 11.2108 17.7071 11.2108 17.5652C11.2108 17.2282 11.2285 16.9001 11.2108 16.5631C11.1931 16.3325 11.2818 16.297 11.4946 16.3414C11.805 16.4034 12.1066 16.43 12.417 16.4921C12.6033 16.5275 12.6742 16.4921 12.6654 16.2881C12.6476 15.9156 12.6654 15.5431 12.6654 15.1617C12.6654 15.0109 12.692 14.9489 12.8693 14.9843C13.4281 15.073 13.4281 15.0641 13.4281 15.6229C13.4281 15.9067 13.4281 16.1905 13.4281 16.4743C13.4281 16.5985 13.4547 16.6517 13.5966 16.6783C14.1731 16.7936 14.1731 16.8024 14.1731 16.2171C14.1731 15.9244 14.1731 15.6317 14.1731 15.3479C14.1731 15.2415 14.1997 15.215 14.315 15.2238C14.9359 15.277 14.9359 15.277 14.9359 15.889C14.9359 16.1728 14.9359 16.4566 14.9359 16.7404C14.9359 16.8557 14.9713 16.9 15.0866 16.9266C15.6809 17.0508 15.6809 17.0597 15.6809 16.4743C15.6809 16.1816 15.6809 15.889 15.6809 15.6051C15.6809 15.4898 15.7163 15.4631 15.8316 15.472C16.4348 15.5429 16.4348 15.5341 16.4348 16.146C16.4348 16.421 16.4348 16.6961 16.4348 16.971C16.4348 17.1041 16.4702 17.1395 16.6033 17.1661C17.1798 17.2726 17.1798 17.2814 17.1798 16.696C17.1798 16.4122 17.1798 16.1284 17.1798 15.8446C17.1798 15.7116 17.2241 15.6848 17.3483 15.7026C17.9336 15.7824 17.9336 15.7735 17.9336 16.3678C17.9336 16.6516 17.9336 16.9356 17.9336 17.2194C17.9336 17.3436 17.978 17.379 18.0933 17.3967C18.6787 17.5209 18.6787 17.5209 18.6787 16.9444C18.6787 16.6872 18.6787 16.4299 18.6787 16.1727C18.6787 16.1372 18.6787 16.1018 18.6787 16.0752C18.7762 15.7737 19.0334 16.0397 19.2108 16.0131C19.3084 15.9954 19.4414 16.0042 19.4325 16.1993C19.4237 16.5984 19.4325 16.9976 19.4325 17.3967C19.4325 17.5741 19.4857 17.6274 19.6543 17.6451C19.9736 17.6806 20.3017 17.7603 20.6299 17.7869C20.8516 17.8047 20.8959 17.8934 20.8871 18.0974C20.8693 18.4079 20.8871 18.727 20.8871 19.0463C20.8871 19.2237 20.9226 19.2947 21.1177 19.3213C21.5079 19.3656 21.8982 19.4454 22.2884 19.4986C22.4126 19.5164 22.4569 19.5518 22.4658 19.6848C22.4835 20.2791 22.4924 20.2791 21.907 20.1904C21.6232 20.1461 21.3394 20.1018 21.0556 20.0575C20.9403 20.0398 20.896 20.0574 20.896 20.1816C20.8605 20.7669 20.8516 20.7669 21.437 20.8645C21.7297 20.9089 22.0223 20.9622 22.3062 20.9977C22.4215 21.0154 22.4569 21.0508 22.4658 21.175C22.4924 21.787 22.5013 21.7868 21.8893 21.6893C21.6144 21.6449 21.3394 21.6095 21.0645 21.5563C20.9403 21.5297 20.8959 21.5563 20.8871 21.6982C20.8605 22.2747 20.8605 22.2747 21.4458 22.3633C21.7297 22.4077 22.0135 22.461 22.2973 22.4965C22.4303 22.5143 22.4658 22.5586 22.4658 22.6916C22.4835 23.2858 22.4835 23.2859 21.8982 23.1883C21.6144 23.144 21.3305 23.0995 21.0467 23.0552C20.9314 23.0374 20.8959 23.073 20.8871 23.1883C20.8516 23.7737 20.8516 23.7737 21.437 23.8624C21.7208 23.9067 22.0046 23.9599 22.2884 23.9954C22.4303 24.0131 22.4658 24.0663 22.4658 24.2082C22.4658 24.7847 22.4747 24.7847 21.907 24.6961C21.6232 24.6517 21.3394 24.6161 21.0556 24.5629C20.9226 24.5363 20.8871 24.5808 20.8871 24.7049C20.8693 25.2814 20.8693 25.2814 21.4458 25.3701C21.7208 25.4145 21.9957 25.4587 22.2707 25.4942C22.4037 25.5119 22.4569 25.5385 22.4569 25.6982C22.4658 26.2835 22.4747 26.2836 21.8804 26.1949C21.6055 26.1505 21.3305 26.1152 21.0556 26.0619C20.9048 26.0353 20.8782 26.0796 20.8782 26.2215C20.8782 26.5586 20.8605 26.8866 20.8782 27.2236C20.896 27.4542 20.8073 27.4897 20.5944 27.4454C20.284 27.3833 19.9824 27.3567 19.672 27.2947C19.4858 27.2592 19.4148 27.2946 19.4237 27.4986C19.4414 27.8711 19.4237 28.2437 19.4237 28.625C19.4237 28.7758 19.3971 28.8379 19.2197 28.8024C18.6609 28.7137 18.6609 28.7226 18.6609 28.1638C18.6609 27.88 18.6609 27.5962 18.6609 27.3124C18.6609 27.1883 18.6343 27.1351 18.4924 27.1084C17.9159 26.9931 17.9159 26.9843 17.9159 27.5697C17.9159 27.8535 17.9159 28.1373 17.9159 28.4211C17.9159 28.5452 17.8804 28.5806 17.7474 28.5629C17.1532 28.4919 17.1532 28.492 17.1532 27.9066C17.1532 27.6228 17.1532 27.339 17.1532 27.0552C17.1532 26.9399 17.1177 26.8956 17.0024 26.869C16.4082 26.7448 16.4081 26.7359 16.4081 27.3213C16.4081 27.614 16.4081 27.9066 16.4081 28.1905C16.4081 28.3058 16.3727 28.3323 16.2574 28.3234C15.6543 28.2525 15.6543 28.2615 15.6543 27.6496C15.6543 27.3746 15.6543 27.0995 15.6543 26.8246C15.6543 26.6915 15.6188 26.6561 15.4857 26.6295C14.9093 26.523 14.9093 26.5142 14.9093 27.0996C14.9093 27.3834 14.9093 27.6672 14.9093 27.951C14.9093 28.084 14.8649 28.1108 14.7407 28.093C14.1554 28.0132 14.1554 28.0221 14.1554 27.4278C14.1554 27.144 14.1554 26.86 14.1554 26.5762C14.1554 26.452 14.111 26.4166 13.9957 26.3989C13.4104 26.2747 13.4104 26.2747 13.4104 26.8512C13.4104 27.1084 13.4104 27.3657 13.4104 27.6229C13.4104 27.6584 13.4104 27.6938 13.4104 27.7204C13.3128 28.0219 13.0556 27.7559 12.8782 27.7825C12.7806 27.8003 12.6476 27.7914 12.6565 27.5963C12.6653 27.1972 12.6565 26.798 12.6565 26.3989C12.6565 26.2215 12.6033 26.1682 12.4347 26.1505C12.1155 26.115 11.7873 26.0353 11.4591 26.0087C11.2374 25.9909 11.1931 25.9022 11.2019 25.6982C11.2197 25.3789 11.2019 25.0509 11.2019 24.7316C11.2019 24.5808 11.1753 24.5009 10.9979 24.4832C10.8028 24.4655 10.5988 24.421 10.4037 24.3944L10.386 24.3767ZM16.0002 25.2105C17.0113 25.3702 18.0312 25.5297 19.0423 25.6982C19.2551 25.7336 19.3261 25.6982 19.3172 25.4764C19.3084 23.4365 19.3084 21.4056 19.3172 19.3657C19.3172 19.1617 19.2818 19.0906 19.06 19.064C17.0201 18.7447 14.9713 18.4256 12.9314 18.0974C12.7452 18.0708 12.6742 18.0974 12.6742 18.3014C12.6742 20.3591 12.6742 22.4078 12.6742 24.4566C12.6742 24.6694 12.7452 24.705 12.9314 24.7404C13.9514 24.8912 14.9713 25.0596 16.0002 25.2192V25.2105Z" fill="#8272B3"/>
<defs>
<linearGradient id="paint0_linear_23_1539" x1="4" y1="21.7961" x2="28.9845" y2="21.7961" gradientUnits="userSpaceOnUse">
<stop stop-color="#FFD649"/>
<stop offset="1" stop-color="#FDC148"/>
</linearGradient>
</defs>
</svg>
