<svg width="40" height="40" viewBox="0 0 40 40" fill="none" xmlns="http://www.w3.org/2000/svg">
<path opacity="0.4" d="M39.5724 25.8781L18.6581 17.4009L0.54126 27.532L21.4461 35.9998L39.5724 25.8781Z" fill="url(#paint0_linear_23_1583)"/>
<path opacity="0.61" d="M39.4589 22.3909L18.5447 13.9229L0.427734 24.0447L21.3326 32.5125L39.4589 22.3909Z" fill="#8272B3"/>
<path d="M26.9839 12.4113L20.5669 9.86908V4L26.9839 6.55187V12.4113Z" fill="#5EC6CC"/>
<path d="M26.9841 12.4296L20.4348 9.77393L14.7644 12.94L21.3137 15.5955L26.9841 12.4296Z" fill="url(#paint1_linear_23_1583)"/>
<path d="M21.2663 15.6148L14.802 12.9498V7.07129L21.2663 9.73645V15.6148Z" fill="url(#paint2_linear_23_1583)"/>
<path opacity="0.6" d="M26.984 6.55187L20.567 4L14.821 7.05279L21.2569 9.72718L26.984 6.55187Z" fill="#8272B3"/>
<path d="M23.6292 11.9293L28.8081 13.9611L28.7231 13.5926L23.5347 11.5605L23.6292 11.9293Z" fill="#C8C8C8"/>
<path d="M23.5347 11.5606L28.7231 13.5927L28.9782 13.4508L23.7899 11.4189L23.5347 11.5606Z" fill="white"/>
<path d="M28.808 13.9611L29.0632 13.8099L28.7229 13.6021L28.808 13.9611Z" fill="white"/>
<path d="M28.9779 13.4507L28.7039 13.602L29.063 13.8099L28.9779 13.4507Z" fill="#C8C8C8"/>
<path d="M38.7876 17.7416L32.3706 15.1994V9.33057L38.7876 11.8822V17.7416Z" fill="#5EC6CC"/>
<path d="M38.7783 17.7507L32.2384 15.1045L26.5586 18.2706L33.1079 20.9263L38.7783 17.7507Z" fill="url(#paint3_linear_23_1583)"/>
<path d="M33.0702 20.9453L26.606 18.2707V12.4019L33.0702 15.067V20.9453Z" fill="#8272B3"/>
<path opacity="0.4" d="M38.788 11.8822L32.371 9.33057L26.625 12.3831L33.0514 15.0577L38.788 11.8822Z" fill="url(#paint4_linear_23_1583)"/>
<path d="M17.7226 11.4277L13.0161 14.4046L13.035 14.0267L17.7414 11.0498L17.7226 11.4277Z" fill="#C8C8C8"/>
<path d="M17.7412 11.0502L13.0348 14.027L12.7607 13.9324L17.4577 10.9556L17.7412 11.0502Z" fill="white"/>
<path d="M13.0159 14.4051L12.7324 14.3107L13.0348 14.0366L13.0159 14.4051Z" fill="white"/>
<path d="M12.7608 13.9326L13.0443 14.0367L12.7324 14.3108L12.7608 13.9326Z" fill="#C8C8C8"/>
<path d="M29.857 16.7019L25.1506 19.6882L25.1696 19.3008L29.876 16.3237L29.857 16.7019Z" fill="#C8C8C8"/>
<path d="M29.876 16.3234L25.1696 19.3005L24.886 19.2153L29.5924 16.229L29.876 16.3234Z" fill="white"/>
<path d="M25.1505 19.6883L24.8669 19.5845L25.1694 19.3198L25.1505 19.6883Z" fill="white"/>
<path d="M24.8858 19.2158L25.1788 19.3104L24.8669 19.5845L24.8858 19.2158Z" fill="#C8C8C8"/>
<path d="M16.1348 18.9701L9.71777 16.4185V10.5591L16.1348 13.1013V18.9701Z" fill="#5EC6CC"/>
<path d="M16.1348 18.9794L9.58542 16.3237L3.91504 19.4898L10.4644 22.1455L16.1348 18.9794Z" fill="url(#paint5_linear_23_1583)"/>
<path d="M10.4263 22.1641L3.95264 19.4989V13.6206L10.4263 16.2855V22.1641Z" fill="url(#paint6_linear_23_1583)"/>
<path opacity="0.6" d="M16.135 13.1013L9.71793 10.5591L3.97192 13.6116L10.4078 16.2768L16.135 13.1013Z" fill="#8272B3"/>
<path d="M26.9743 24.5172L20.5574 21.9748V16.106L26.9743 18.6576V24.5172Z" fill="#5EC6CC"/>
<path d="M26.9651 24.5366L20.4253 21.8809L14.7549 25.0467L21.2947 27.7024L26.9651 24.5366Z" fill="url(#paint7_linear_23_1583)"/>
<path d="M21.257 27.7217L14.7927 25.0471V19.1782L21.257 21.8434V27.7217Z" fill="url(#paint8_linear_23_1583)"/>
<path opacity="0.4" d="M26.9745 18.6576L20.5575 16.106L14.8115 19.1585L21.2379 21.8331L26.9745 18.6576Z" fill="url(#paint9_linear_23_1583)"/>
<defs>
<linearGradient id="paint0_linear_23_1583" x1="0.54126" y1="26.7003" x2="39.5724" y2="26.7003" gradientUnits="userSpaceOnUse">
<stop stop-color="#FFD649"/>
<stop offset="1" stop-color="#FDC148"/>
</linearGradient>
<linearGradient id="paint1_linear_23_1583" x1="23.4968" y1="11.1537" x2="17.3255" y2="14.7544" gradientUnits="userSpaceOnUse">
<stop stop-color="#26A9E0"/>
<stop offset="0.41" stop-color="#5EC6CC"/>
</linearGradient>
<linearGradient id="paint2_linear_23_1583" x1="17.4104" y1="8.83858" x2="19.4518" y2="16.9662" gradientUnits="userSpaceOnUse">
<stop stop-color="#FFD649"/>
<stop offset="1" stop-color="#FDC148"/>
</linearGradient>
<linearGradient id="paint3_linear_23_1583" x1="35.291" y1="16.4843" x2="29.1196" y2="20.085" gradientUnits="userSpaceOnUse">
<stop stop-color="#26A9E0"/>
<stop offset="0.41" stop-color="#5EC6CC"/>
</linearGradient>
<linearGradient id="paint4_linear_23_1583" x1="26.625" y1="12.1942" x2="38.788" y2="12.1942" gradientUnits="userSpaceOnUse">
<stop stop-color="#FFD649"/>
<stop offset="1" stop-color="#FDC148"/>
</linearGradient>
<linearGradient id="paint5_linear_23_1583" x1="12.6475" y1="17.7036" x2="6.47609" y2="21.3042" gradientUnits="userSpaceOnUse">
<stop stop-color="#26A9E0"/>
<stop offset="0.41" stop-color="#5EC6CC"/>
</linearGradient>
<linearGradient id="paint6_linear_23_1583" x1="6.561" y1="15.3879" x2="8.60239" y2="23.5155" gradientUnits="userSpaceOnUse">
<stop stop-color="#FFD649"/>
<stop offset="1" stop-color="#FDC148"/>
</linearGradient>
<linearGradient id="paint7_linear_23_1583" x1="23.4873" y1="23.2606" x2="17.3066" y2="26.8613" gradientUnits="userSpaceOnUse">
<stop stop-color="#26A9E0"/>
<stop offset="0.41" stop-color="#5EC6CC"/>
</linearGradient>
<linearGradient id="paint8_linear_23_1583" x1="14.7927" y1="23.45" x2="21.257" y2="23.45" gradientUnits="userSpaceOnUse">
<stop stop-color="#FFD649"/>
<stop offset="1" stop-color="#FDC148"/>
</linearGradient>
<linearGradient id="paint9_linear_23_1583" x1="14.8115" y1="18.9695" x2="26.9745" y2="18.9695" gradientUnits="userSpaceOnUse">
<stop stop-color="#FFD649"/>
<stop offset="1" stop-color="#FDC148"/>
</linearGradient>
</defs>
</svg>
