<svg width="32" height="32" viewBox="0 0 32 32" fill="none" xmlns="http://www.w3.org/2000/svg">
<g opacity="0.61">
<path d="M1.16051 24.6391L13.5178 19.1804C14.1518 19.1804 14.6676 18.6646 14.6676 18.0306V6.01719C14.6676 5.38321 14.1518 4.86743 13.5178 4.86743L1.16051 10.3261C0.515784 10.627 0 11.0353 0 11.6371V23.4893C0 24.1233 0.52653 24.6391 1.16051 24.6391Z" fill="#8272B3"/>
</g>
<g opacity="0.61">
<path d="M30.8396 25.413L18.4823 19.9543C17.8483 19.9543 17.3325 19.4385 17.3325 18.8046V6.79113C17.3325 6.15715 17.8483 5.64136 18.4823 5.64136L30.8396 11.1001C31.4843 11.4009 32.0001 11.8093 32.0001 12.411V24.2633C32.0001 24.8972 31.4736 25.413 30.8396 25.413Z" fill="#5EC6CB"/>
</g>
<g opacity="0.61">
<path d="M3.57824 25.5741L15.9355 20.1154C16.5695 20.1154 17.0853 19.5997 17.0853 18.9657V6.95225C17.0853 6.31826 16.5695 5.80249 15.9355 5.80249L3.57824 11.2612C2.93351 11.5621 2.41772 11.9704 2.41772 12.5721V24.4244C2.41772 25.0584 2.94425 25.5741 3.57824 25.5741Z" fill="#5EC6CB"/>
</g>
<g opacity="0.76">
<path d="M29.3352 26.8525L16.9779 21.3938C16.3439 21.3938 15.8281 20.878 15.8281 20.244V11.379C15.8281 10.745 16.3439 10.2292 16.9779 10.2292L29.3352 15.6879C29.9799 15.9888 30.4957 16.3971 30.4957 16.9989V25.7027C30.4957 26.3367 29.9692 26.8525 29.3352 26.8525Z" fill="#8173B3"/>
</g>
<path d="M18.0202 27.1321L6.15724 25.6707C5.69518 25.6707 5.32983 25.3484 5.32983 24.9401V17.2785C5.32983 16.8702 5.69518 16.5479 6.15724 16.5479L18.0202 18.0092C18.4823 18.0092 18.8476 18.3316 18.8476 18.7399V26.4014C18.8476 26.8098 18.4823 27.1321 18.0202 27.1321Z" fill="url(#paint0_linear_39_36599)"/>
<path d="M17.3647 23.3283L15.3123 23.0489C15.2371 23.0489 15.1726 22.9844 15.1726 22.9092V21.4156C15.1726 21.3404 15.2371 21.2759 15.3123 21.2759L17.3647 21.5553C17.4399 21.5553 17.5044 21.6197 17.5044 21.695V23.1886C17.5044 23.2638 17.4399 23.3283 17.3647 23.3283Z" fill="#8173B3"/>
<defs>
<linearGradient id="paint0_linear_39_36599" x1="5.32983" y1="21.8454" x2="18.8476" y2="21.8454" gradientUnits="userSpaceOnUse">
<stop stop-color="#FFD549"/>
<stop offset="1" stop-color="#FCC048"/>
</linearGradient>
</defs>
</svg>
