<svg width="36" height="36" viewBox="0 0 36 36" fill="none" xmlns="http://www.w3.org/2000/svg">
<path d="M27.9081 20.3192C27.1652 18.843 25.8608 17.9003 24.0339 17.5161C23.8953 17.4877 23.7389 17.4699 23.5896 17.4521L23.3871 17.4272C23.2662 17.4094 23.0956 17.3916 22.8077 17.3916H22.6513L19.6871 17.3632L19.7155 14.4107C19.7262 14.0229 19.7084 13.8131 19.6906 13.6708L19.6693 13.468C19.6551 13.3222 19.6409 13.1621 19.6124 13.0198C19.2606 11.1843 18.34 9.86454 16.8792 9.09617C15.7561 8.50923 14.7253 8.47722 14.7147 8.47722H14.5512C14.2633 8.47366 14.0429 8.48433 13.7906 8.51635C8.96391 9.12819 8.97813 13.7668 8.98168 13.966L8.9106 22.571C8.89638 24.2998 9.35488 25.6693 10.279 26.6476C11.228 27.5724 12.5892 28.0527 14.3131 28.0633L22.9534 28.1345C23.4439 28.138 27.7694 28.0384 28.4341 23.4105C28.4767 23.1152 28.491 22.8662 28.491 22.4927C28.491 22.4785 28.4803 21.4469 27.9081 20.3121" fill="#ED3024"/>
<path d="M30.5597 0.964052L6.23444 0.764847C3.35195 0.739946 0.991924 3.06282 0.970598 5.94773L0.77156 30.297C0.746681 33.1819 3.06761 35.5403 5.9501 35.5652L30.2754 35.7645C33.1579 35.7893 35.5179 33.47 35.5392 30.5816L35.7383 6.23587C35.7631 3.35095 33.4422 0.99251 30.5597 0.967609M30.8298 27.5401C29.3051 30.361 26.2129 31.3357 25.303 31.5669C24.7698 31.7021 24.3007 31.7626 23.4406 31.8088H23.4299L13.0728 31.7234C13.0728 31.7234 12.3655 31.7128 11.6618 31.5313C11.1677 31.4033 10.5386 31.2005 10.0268 30.9586C9.41905 30.674 8.72241 30.2792 7.76632 29.3259L7.61349 29.1693C6.85999 28.3939 6.14203 27.2947 5.78305 26.3734C5.5769 25.8469 5.52004 25.5908 5.39919 25.0963C5.23214 24.4098 5.24281 23.6841 5.24281 23.6272L5.32455 13.4072C5.38498 12.5215 5.45251 12.0484 5.59823 11.5184C5.84347 10.6113 6.87065 7.53426 9.72471 6.04734C11.3312 5.15803 12.9804 4.70982 14.6189 4.72405C17.1531 4.74539 18.788 5.86592 18.8556 5.91572C23.2984 8.637 23.3908 13.1013 23.3837 13.731C24.0377 13.7203 28.4592 13.8804 31.1355 18.4194C31.1497 18.4407 33.7905 22.3821 30.8263 27.5401" fill="#ED3024"/>
</svg>
