<svg width="90" height="31" viewBox="0 0 90 31" fill="none" xmlns="http://www.w3.org/2000/svg">
<path d="M32.9701 4.03223H47.4239V8.41061H37.7157V12.7946H46.6951V17.1729H37.7157V25.5737H32.9701V4.03223Z" fill="#252C57"/>
<path d="M50.8329 4.03242H58.8332C59.8939 4.02724 60.9525 4.12788 61.9932 4.33284C62.9211 4.51097 63.8055 4.86811 64.5969 5.38432C65.347 5.89181 65.9542 6.58334 66.3605 7.3927C66.8321 8.38522 67.0573 9.47685 67.017 10.575C67.0505 11.6607 66.8414 12.7402 66.405 13.735C66.0344 14.5483 65.4594 15.2517 64.736 15.7767C63.9764 16.3049 63.1169 16.6722 62.2102 16.856C61.1693 17.0742 60.1081 17.1805 59.0446 17.1731H55.5786V25.5739H50.8329V4.03242ZM55.5786 13.1564H58.7442C59.1568 13.1574 59.5686 13.1183 59.9737 13.0395C60.3486 12.9634 60.7079 12.8242 61.0363 12.6278C61.3523 12.4323 61.6144 12.1607 61.7985 11.8378C62.0043 11.4497 62.1041 11.014 62.0878 10.575C62.1114 10.1031 61.9762 9.63694 61.7039 9.25087C61.453 8.91284 61.1198 8.6447 60.7359 8.472C60.3168 8.28322 59.8694 8.1648 59.4118 8.12151C58.946 8.07357 58.478 8.04944 58.0098 8.04918H55.5786V13.1564Z" fill="#252C57"/>
<path d="M75.351 14.3134L68.2354 4.03223H74.1938L78.7892 11.5762L83.201 4.03223H88.9536L81.9826 14.2244L89.7715 25.5737H83.8075L78.55 16.9003L73.4372 25.5737H67.807L75.351 14.3134Z" fill="#252C57"/>
<path d="M12.1839 21.5298L9.17967 17.4629C8.7346 16.8565 7.96684 16.061 7.96684 15.2654C7.96684 14.4698 8.72903 13.6687 9.17967 13.04L12.1839 8.96763C12.3029 8.80327 12.4432 8.65547 12.6012 8.52812V3.84375C12.6012 0.0773401 11.0267 -0.868436 9.10179 1.73523L2.60925 10.5254C1.64678 11.8328 0 13.5463 0 15.2654C0 16.9845 1.66903 18.698 2.60925 20.0054L9.09066 28.7677C11.0156 31.3714 12.5901 30.4367 12.5901 26.6648V21.9748C12.4295 21.8482 12.2888 21.6982 12.1728 21.5298" fill="#0E86C8"/>
<path d="M24.9131 10.5261L18.4317 1.75825C16.5068 -0.850975 14.9323 0.0892337 14.9323 3.86677V8.55115C15.0897 8.67737 15.2283 8.82535 15.344 8.99066L18.3538 13.0631C18.8045 13.6695 19.5667 14.4706 19.5667 15.2884C19.5667 16.1062 18.8045 16.8795 18.3538 17.486L15.344 21.5528C15.2281 21.7212 15.0896 21.8728 14.9323 22.0034V26.6878C14.9323 30.4598 16.5068 31.3944 18.4317 28.7907L24.9131 20.0284C25.8756 18.7155 27.5224 16.9964 27.5224 15.2828C27.5224 13.5693 25.8533 11.8558 24.9131 10.5484" fill="#252C57"/>
</svg>
