<svg width="36" height="36" viewBox="0 0 36 36" fill="none" xmlns="http://www.w3.org/2000/svg">
<rect x="0.771362" y="0.764648" width="35" height="35" rx="3.37809" fill="#00B041"/>
<path fill-rule="evenodd" clip-rule="evenodd" d="M32.0558 13.4388C32.0428 13.5419 32.0297 13.645 32.0167 13.7482C31.9227 14.4843 31.6108 15.1173 31.0979 15.6498C30.5771 16.1927 29.9441 16.532 29.2002 16.656C28.0073 16.8557 26.6277 16.3663 25.9282 15.2726C25.8199 15.1029 25.7494 14.9097 25.6619 14.727C25.6397 14.68 25.6476 14.6409 25.6841 14.5978C25.8133 14.4477 25.936 14.2937 26.0613 14.141C26.0744 14.1253 26.0809 14.1058 26.1005 14.0705C26.1474 14.1997 26.1762 14.3002 26.2179 14.3942C26.6147 15.2869 27.2947 15.8273 28.2553 15.9904C29.6465 16.2279 30.9765 15.2908 31.2936 13.9622C31.3432 13.7547 31.3654 13.538 31.3745 13.3253C31.385 13.0486 31.3785 12.7693 31.3615 12.4913C31.3302 11.9627 31.137 11.4916 30.8159 11.0752C30.3461 10.467 29.7301 10.0963 28.9653 10.0076C28.2057 9.92015 27.5309 10.1499 26.9436 10.6328C26.3315 11.1366 25.8016 11.7213 25.2926 12.3268C25.0563 12.6088 24.8293 12.8985 24.5982 13.1843C24.5839 13.2013 24.5682 13.217 24.5434 13.2444C24.5408 13.2091 24.5395 13.1896 24.5395 13.17C24.5395 12.8894 24.5382 12.6075 24.5408 12.3268C24.5408 12.2877 24.5526 12.242 24.5761 12.212C24.982 11.686 25.4035 11.1731 25.876 10.7059C26.2258 10.36 26.6056 10.0494 27.0206 9.78572C27.4017 9.54297 27.8233 9.40592 28.2696 9.34719C30.042 9.11488 31.586 10.3678 31.9501 11.9053C31.9932 12.0841 32.0075 12.2694 32.0349 12.4521C32.0415 12.4926 32.0493 12.5331 32.0571 12.5735V13.4349L32.0558 13.4388Z" fill="white"/>
<path fill-rule="evenodd" clip-rule="evenodd" d="M23.0856 27.8378C23.1365 27.8782 23.173 27.9056 23.2096 27.9356C23.7434 28.3689 24.3503 28.6443 25.0328 28.7318C25.487 28.7905 25.9399 28.7814 26.3732 28.6013C26.8548 28.4003 27.0963 28.0192 27.1406 27.5128C27.1641 27.2452 27.155 26.975 27.1589 26.7062C27.1589 26.684 27.1537 26.6618 27.1511 26.6305C27.1328 26.6396 27.1211 26.6422 27.1145 26.6501C26.8104 26.9959 26.4137 27.176 25.9752 27.2622C25.2612 27.4044 24.5695 27.3274 23.9222 26.9842C23.2304 26.6174 22.8311 26.0197 22.6392 25.2731C22.5635 24.9795 22.5309 24.6806 22.5309 24.3778C22.5309 23.0492 22.5309 21.7218 22.5309 20.3932C22.5309 20.3157 22.5705 20.277 22.6497 20.277C23.1078 20.277 23.5646 20.2796 24.0227 20.2744C24.1153 20.2744 24.1362 20.3018 24.1362 20.3906C24.1336 21.7401 24.1271 23.0896 24.1388 24.4378C24.144 25.0578 24.5121 25.6856 25.2939 25.8213C25.7455 25.8996 26.1761 25.8278 26.5481 25.5368C26.8287 25.3162 26.9697 25.0147 27.0154 24.6675C27.0336 24.5318 27.0349 24.3935 27.0349 24.2564C27.0349 22.9695 27.0349 21.684 27.0349 20.3971C27.0349 20.3162 27.0758 20.2757 27.1576 20.2757C27.604 20.2757 28.049 20.2757 28.4954 20.2757C28.5633 20.2757 28.5881 20.294 28.5881 20.3671C28.5854 22.749 28.5933 25.1296 28.5815 27.5115C28.5789 28.1627 28.3858 28.7657 27.9407 29.2656C27.5687 29.6832 27.0937 29.9299 26.5599 30.0709C26.244 30.1544 25.9216 30.1909 25.5954 30.2066C24.6896 30.2484 23.8804 29.9965 23.1704 29.4287C23.1065 29.3778 23.0777 29.323 23.079 29.2395C23.083 28.7996 23.0803 28.3598 23.0817 27.92C23.0817 27.8991 23.0843 27.8782 23.0869 27.8364L23.0856 27.8378Z" fill="white"/>
<path fill-rule="evenodd" clip-rule="evenodd" d="M9.55911 27.3613H9.45209C9.01226 27.3613 8.57242 27.3587 8.13259 27.3639C8.03862 27.3639 8.01904 27.3352 8.01904 27.2478C8.02165 25.3723 8.02035 23.4968 8.02035 21.62C8.02035 20.7168 8.02035 19.8136 8.02035 18.9092C8.02035 18.7917 8.02035 18.7904 8.13781 18.7904C9.23022 18.7904 10.3226 18.7721 11.4137 18.7982C12.202 18.8165 12.9251 19.0566 13.4967 19.6374C13.8556 20.0016 14.0671 20.4466 14.1624 20.9439C14.2837 21.5756 14.2707 22.206 14.0579 22.8181C13.7369 23.7382 13.0713 24.2812 12.1433 24.5239C11.8301 24.6061 11.5103 24.6388 11.1853 24.6388C10.6828 24.6388 10.1804 24.6388 9.67788 24.6388C9.56042 24.6388 9.56042 24.6388 9.56042 24.7575C9.56042 25.5863 9.56042 26.4151 9.56042 27.2438V27.36L9.55911 27.3613ZM10.4362 23.2083C10.6489 23.2083 10.8603 23.2149 11.0731 23.2057C11.2545 23.1979 11.4385 23.1887 11.6147 23.1522C12.0989 23.0504 12.4513 22.7802 12.6131 22.3012C12.7437 21.9175 12.745 21.526 12.6314 21.1384C12.5218 20.7625 12.2777 20.5041 11.9123 20.3579C11.6839 20.2665 11.445 20.2313 11.2036 20.2274C10.6841 20.2208 10.1634 20.2261 9.64264 20.2248C9.57608 20.2248 9.5565 20.2496 9.5565 20.3148C9.55781 21.248 9.55911 22.1799 9.5565 23.113C9.5565 23.1887 9.5813 23.2096 9.65439 23.2096C9.91411 23.2057 10.1751 23.2096 10.4349 23.2096L10.4362 23.2083Z" fill="white"/>
<path fill-rule="evenodd" clip-rule="evenodd" d="M20.0183 26.6327C19.6659 27.0008 19.2418 27.2044 18.7602 27.2997C18.4026 27.3714 18.0424 27.3662 17.6821 27.3284C17.2436 27.2827 16.8273 27.1665 16.4396 26.9538C15.7218 26.5583 15.2833 25.9449 15.0627 25.1644C14.9661 24.8212 14.9218 24.4688 14.9204 24.1125C14.9204 23.7692 14.9113 23.4234 14.94 23.0814C15.0523 21.7541 15.8027 20.6499 17.2658 20.3028C18.0306 20.1213 18.798 20.137 19.5433 20.3954C20.5482 20.7452 21.1616 21.4604 21.4214 22.4863C21.4971 22.7878 21.5323 23.0958 21.5323 23.4077C21.5323 24.6554 21.5323 25.9018 21.5323 27.1496C21.5323 27.234 21.4901 27.2762 21.4057 27.2762C20.9776 27.2762 20.5508 27.2749 20.1227 27.2775C20.0444 27.2775 20.0118 27.2605 20.0157 27.1731C20.0223 26.9916 20.0183 26.8102 20.0183 26.6288V26.6327ZM20.034 23.7993C20.0157 23.5461 20.0209 23.2902 19.9766 23.0423C19.8669 22.4393 19.5276 22.0086 18.9468 21.7906C18.5827 21.6536 18.2068 21.6431 17.827 21.711C17.1209 21.8363 16.5767 22.3884 16.471 23.0958C16.4122 23.4912 16.4135 23.8893 16.4553 24.2848C16.5245 24.9439 16.8599 25.4307 17.4642 25.7139C17.8401 25.8914 18.2381 25.9071 18.6466 25.8523C19.2901 25.7648 19.7717 25.3524 19.9466 24.7272C20.0314 24.4231 20.0223 24.1125 20.0366 23.8006L20.034 23.7993Z" fill="white"/>
<path fill-rule="evenodd" clip-rule="evenodd" d="M11.5118 12.5543H8.69657C8.69396 12.5151 8.69135 12.4838 8.69135 12.4525C8.69135 12.3024 8.69135 12.1536 8.69135 12.0035C8.69135 11.9217 8.73398 11.8808 8.81925 11.8808H11.0993C11.4282 11.8808 11.7571 11.8834 12.086 11.8795C12.1643 11.8795 12.1891 11.9017 12.1878 11.98C12.1852 13.1494 12.1878 14.3188 12.1839 15.4895C12.1839 15.5378 12.1617 15.5966 12.1304 15.6331C11.7898 16.0325 11.3578 16.3079 10.884 16.5193C10.4363 16.719 9.96647 16.8325 9.47835 16.886C8.64958 16.9761 7.8417 16.9004 7.07819 16.548C5.74173 15.9281 4.90382 14.8931 4.59973 13.4522C4.42092 12.6038 4.43789 11.7516 4.74982 10.9293C5.15963 9.84737 5.90226 9.05645 6.91505 8.51221C7.45146 8.22377 8.02573 8.05149 8.63262 7.98362C9.07767 7.93403 9.52142 7.9523 9.96517 7.98623C10.4011 8.02016 10.8279 8.10108 11.239 8.25379C11.3225 8.28511 11.3604 8.32296 11.3551 8.41954C11.346 8.62445 11.3525 8.83066 11.3525 9.04862C11.269 9.00686 11.1998 8.96901 11.128 8.93507C10.7548 8.75496 10.3593 8.65708 9.94951 8.62445C9.65193 8.60096 9.35436 8.58529 9.05548 8.58921C8.16538 8.60096 7.36924 8.892 6.66446 9.43103C5.99623 9.94134 5.53029 10.5965 5.29667 11.4096C5.1779 11.8208 5.15702 12.2423 5.17399 12.6691C5.19618 13.212 5.31103 13.7289 5.55509 14.2131C6.0902 15.2716 6.93985 15.9281 8.10142 16.176C8.57128 16.2765 9.04504 16.2661 9.51881 16.2113C10.0774 16.1473 10.6086 15.9985 11.0863 15.6944C11.2168 15.6109 11.3382 15.5117 11.4543 15.4099C11.4896 15.3799 11.5157 15.3186 11.5157 15.2716C11.5196 14.3984 11.5183 13.524 11.5183 12.6508C11.5183 12.6221 11.5131 12.5921 11.5092 12.5569L11.5118 12.5543Z" fill="white"/>
<path fill-rule="evenodd" clip-rule="evenodd" d="M21.7112 15.8221C21.7112 16.0388 21.7138 16.245 21.7086 16.4512C21.7086 16.4747 21.6681 16.5112 21.6407 16.5191C21.4319 16.5765 21.2231 16.6548 21.0103 16.677C20.1333 16.7709 19.3397 16.5386 18.6415 16.0022C17.9067 15.4371 17.4538 14.6945 17.335 13.7743C17.2841 13.3828 17.3011 12.9808 17.3076 12.584C17.3233 11.7879 17.6143 11.0936 18.1338 10.4958C18.6519 9.90064 19.298 9.51302 20.0772 9.37859C21.1317 9.19586 22.0753 9.4582 22.8858 10.1591C23.5123 10.7007 23.8882 11.3911 24.0226 12.2081C24.0474 12.3635 24.0604 12.5227 24.0604 12.6806C24.0631 13.9792 24.0618 15.2779 24.0618 16.5752V16.6953H23.3896V16.5673C23.3896 15.2687 23.3987 13.9701 23.387 12.6728C23.3752 11.3076 22.3899 10.2648 21.18 10.0377C19.7169 9.76491 18.31 10.7647 18.0189 12.1951C17.9902 12.3374 17.972 12.4848 17.9707 12.6297C17.9654 13.0121 17.9354 13.3958 18.0124 13.7743C18.2134 14.7715 18.7955 15.4619 19.73 15.8469C20.3512 16.1027 20.9816 16.0831 21.6107 15.856C21.6407 15.8456 21.6707 15.8352 21.7112 15.8221Z" fill="white"/>
<path fill-rule="evenodd" clip-rule="evenodd" d="M10.9948 13.0766V13.1719C10.9948 13.7945 10.9948 14.4157 10.9961 15.0383C10.9961 15.1061 10.9752 15.1492 10.923 15.1897C10.632 15.4181 10.2939 15.5408 9.93894 15.6204C9.53826 15.7104 9.12845 15.7548 8.71994 15.7274C7.5179 15.6478 6.6278 15.0657 6.05353 14.0111C5.80164 13.5491 5.69984 13.0479 5.6907 12.5219C5.68157 12.0129 5.74682 11.5209 5.97 11.0589C6.37982 10.2118 7.04283 9.6454 7.91728 9.31781C8.44325 9.12073 8.9901 9.07635 9.5474 9.11159C10.0212 9.14161 10.4845 9.21339 10.9269 9.38698C11.0522 9.43527 11.1736 9.494 11.2937 9.55273C11.3198 9.56578 11.3485 9.60363 11.3485 9.62974C11.3524 9.86858 11.3511 10.1074 11.3511 10.3658C11.3146 10.341 11.2885 10.3254 11.2637 10.3071C10.8943 10.0278 10.4727 9.87771 10.0173 9.82812C9.71185 9.79549 9.40253 9.76417 9.09713 9.77591C8.02038 9.82159 7.17857 10.2875 6.63563 11.2364C6.44769 11.5653 6.36807 11.9281 6.36024 12.3092C6.35111 12.7503 6.39548 13.181 6.58603 13.5843C6.96452 14.3857 7.58708 14.8843 8.46805 15.0226C9.0893 15.1205 9.6988 15.0331 10.29 14.8177C10.3501 14.7955 10.3723 14.7616 10.3723 14.6989C10.3696 14.4183 10.3683 14.1364 10.3723 13.8558C10.3736 13.7684 10.3488 13.737 10.2561 13.737C9.76797 13.741 9.28115 13.737 8.79303 13.741C8.71211 13.741 8.6847 13.7214 8.68731 13.6365C8.69384 13.4512 8.68992 13.2672 8.68992 13.074H10.9935L10.9948 13.0766Z" fill="white"/>
<path fill-rule="evenodd" clip-rule="evenodd" d="M27.0466 12.9311C27.0858 13.1073 27.1106 13.2561 27.151 13.401C27.2646 13.799 27.4616 14.1475 27.7592 14.4412C28.3857 15.0585 29.2627 14.8862 29.7509 14.3877C30.021 14.1123 30.1698 13.7795 30.1763 13.3918C30.1816 13.0995 30.1959 12.8045 30.1698 12.5148C30.1124 11.8896 29.6399 11.3676 29.0265 11.2279C28.4862 11.1052 28.0163 11.2553 27.6104 11.6194C27.0714 12.105 26.6029 12.6583 26.1369 13.2117C25.607 13.8408 25.0941 14.4829 24.5747 15.1199C24.5695 15.1264 24.5655 15.1355 24.5433 15.1394C24.542 15.1159 24.5381 15.0924 24.5381 15.0677C24.5381 14.7779 24.5355 14.4869 24.5407 14.1971C24.5407 14.1475 24.5603 14.0901 24.589 14.0509C25.0693 13.4114 25.5901 12.8071 26.1317 12.2198C26.4267 11.8987 26.7229 11.5777 27.0362 11.2723C27.3899 10.9277 27.7997 10.6628 28.2891 10.5571C28.8725 10.4318 29.4115 10.5649 29.8957 10.9055C30.3943 11.2553 30.7088 11.7317 30.8224 12.3334C30.842 12.4378 30.8498 12.5474 30.8498 12.6544C30.8472 12.9768 30.8615 13.3018 30.8276 13.6215C30.7349 14.466 30.0993 15.1877 29.2667 15.4253C28.3557 15.685 27.4277 15.3182 26.8913 14.4895C26.7282 14.2363 26.6094 13.9635 26.5402 13.6711C26.5311 13.6294 26.5441 13.5693 26.5702 13.5354C26.7112 13.354 26.86 13.1778 27.0048 12.999C27.0179 12.9833 27.0257 12.9638 27.0453 12.9324L27.0466 12.9311Z" fill="white"/>
<path fill-rule="evenodd" clip-rule="evenodd" d="M21.7113 14.5081C21.7113 14.7392 21.7139 14.9545 21.7087 15.1685C21.7087 15.2012 21.6708 15.2403 21.6408 15.2612C21.462 15.3826 21.2584 15.4439 21.0483 15.4766C20.132 15.6175 19.2641 15.2077 18.793 14.4116C18.5946 14.0761 18.4902 13.712 18.4928 13.3205C18.4928 13.1286 18.4941 12.938 18.4928 12.7462C18.4863 12.0205 18.7825 11.4371 19.3411 10.9882C20.5888 9.9858 22.5178 10.6358 22.8272 12.2763C22.8546 12.4251 22.8663 12.5791 22.8676 12.7305C22.8702 14.0135 22.8689 15.2964 22.8689 16.5794C22.8689 16.6595 22.828 16.6999 22.7462 16.7008C22.5962 16.7008 22.4474 16.6969 22.2973 16.7021C22.2203 16.7047 22.202 16.676 22.202 16.6042C22.2046 16.2596 22.202 15.9164 22.202 15.5718C22.202 14.636 22.202 13.6989 22.202 12.7632C22.202 12.4303 22.1302 12.1158 21.9357 11.8404C21.629 11.4084 21.2101 11.1957 20.6776 11.1852C20.0537 11.1735 19.3933 11.5898 19.2119 12.3155C19.1832 12.433 19.1702 12.5569 19.1662 12.6783C19.1584 12.8898 19.1636 13.1025 19.1636 13.3152C19.1636 14.0814 19.6974 14.7117 20.457 14.8201C20.8721 14.8801 21.2649 14.7914 21.6225 14.5669C21.6473 14.5512 21.6721 14.5342 21.7126 14.5081H21.7113Z" fill="white"/>
<path fill-rule="evenodd" clip-rule="evenodd" d="M18.0555 9.77537C17.8858 9.95939 17.737 10.1225 17.5908 10.2805C17.4172 10.2152 17.2502 10.1291 17.0727 10.0886C16.009 9.84715 15.0615 10.0494 14.2953 10.8678C13.9534 11.2332 13.7642 11.6809 13.6911 12.1729C13.6558 12.4052 13.6428 12.6428 13.6428 12.8777C13.6376 14.1098 13.6402 15.3418 13.6402 16.5739C13.6402 16.6583 13.598 16.7005 13.5136 16.7005C13.3609 16.7005 13.2082 16.6979 13.0555 16.7005C12.9915 16.7018 12.968 16.6783 12.9732 16.6183C12.9745 16.6039 12.9732 16.5882 12.9732 16.5739C12.9732 15.2909 12.9732 14.008 12.9732 12.725C12.9732 11.985 13.1547 11.2998 13.584 10.6916C14.0917 9.97245 14.7926 9.54958 15.6514 9.38774C16.3196 9.26114 16.9774 9.3029 17.613 9.55349C17.7618 9.61222 17.9002 9.69706 18.0542 9.77537H18.0555Z" fill="white"/>
<path fill-rule="evenodd" clip-rule="evenodd" d="M17.297 10.711C17.1952 10.9133 17.0999 11.1038 17.006 11.2905C16.8728 11.2591 16.741 11.2148 16.6066 11.1991C15.9671 11.1234 15.3484 11.3244 15.0156 11.9404C14.8942 12.1649 14.8368 12.409 14.8368 12.6635C14.8368 13.9647 14.8368 15.2659 14.8368 16.5672V16.6912H14.1712C14.1699 16.6598 14.166 16.6285 14.166 16.5972C14.166 15.2751 14.1542 13.953 14.1699 12.6308C14.1816 11.5645 14.9164 10.7332 15.9175 10.5531C16.3182 10.4813 16.7136 10.5048 17.1025 10.6274C17.1691 10.6483 17.2318 10.6836 17.297 10.7123V10.711Z" fill="white"/>
<path fill-rule="evenodd" clip-rule="evenodd" d="M25.2465 6.32324H25.9069C25.9082 6.35979 25.9121 6.39111 25.9121 6.42243C25.9121 7.56574 25.9121 8.70775 25.9121 9.85106C25.9121 9.90979 25.8938 9.94764 25.852 9.99071C25.6719 10.1734 25.497 10.3627 25.3209 10.5493C25.2987 10.5728 25.2778 10.5963 25.2465 10.6328V6.32324Z" fill="white"/>
<path fill-rule="evenodd" clip-rule="evenodd" d="M26.437 9.62952V9.51597C26.437 8.49013 26.437 7.46428 26.437 6.43713C26.437 6.35795 26.4784 6.31836 26.561 6.31836C26.6981 6.31836 26.8364 6.31836 26.9735 6.31836C27.0587 6.31836 27.1018 6.36273 27.1027 6.45148C27.1027 6.64856 27.1027 6.84694 27.1027 7.04402C27.1027 7.7227 27.1027 8.40268 27.1027 9.08136C27.1027 9.15184 27.0818 9.1923 27.0191 9.23145C26.8469 9.33978 26.6824 9.45985 26.5153 9.57471C26.4945 9.58906 26.4736 9.60342 26.4357 9.62952H26.437Z" fill="white"/>
</svg>
