<svg width="50" height="31" viewBox="0 0 50 31" fill="none" xmlns="http://www.w3.org/2000/svg">
<path d="M31.3652 3.47168H18.2402V27.0577H31.3652V3.47168Z" fill="#FF5F00"/>
<path d="M19.0736 15.2646C19.0716 12.9931 19.5863 10.7509 20.5789 8.70778C21.5714 6.66462 23.0158 4.87407 24.8027 3.47165C22.5899 1.73234 19.9324 0.650681 17.134 0.350318C14.3355 0.0499539 11.509 0.542991 8.97746 1.7731C6.44596 3.0032 4.3116 4.92075 2.81837 7.30653C1.32514 9.69232 0.533279 12.4501 0.533279 15.2646C0.533279 18.0792 1.32514 20.837 2.81837 23.2228C4.3116 25.6086 6.44596 27.5261 8.97746 28.7562C11.509 29.9863 14.3355 30.4793 17.134 30.179C19.9324 29.8786 22.5899 28.797 24.8027 27.0576C23.0159 25.6552 21.5715 23.8647 20.5789 21.8215C19.5863 19.7783 19.0716 17.5361 19.0736 15.2646Z" fill="#EB001B"/>
<path d="M49.0716 15.2646C49.0717 18.0792 48.2799 20.8369 46.7868 23.2227C45.2936 25.6085 43.1593 27.526 40.6279 28.7562C38.0964 29.9863 35.2699 30.4793 32.4715 30.179C29.6731 29.8786 27.0156 28.797 24.8029 27.0576C26.5882 25.6538 28.0315 23.863 29.0239 21.8201C30.0163 19.7773 30.5319 17.5358 30.5319 15.2646C30.5319 12.9935 30.0163 10.752 29.0239 8.70917C28.0315 6.66633 26.5882 4.87548 24.8029 3.47165C27.0156 1.73233 29.6731 0.650674 32.4715 0.350314C35.2699 0.0499538 38.0964 0.543013 40.6279 1.77313C43.1593 3.00325 45.2936 4.92079 46.7868 7.30658C48.2799 9.69237 49.0717 12.4501 49.0716 15.2646Z" fill="#F79E1B"/>
<path d="M47.6403 24.5598V24.0769H47.835V23.9785H47.3391V24.0769H47.5339V24.5598H47.6403ZM48.603 24.5598V23.9775H48.451L48.2762 24.378L48.1013 23.9775H47.9492V24.5598H48.0565V24.1206L48.2205 24.4992H48.3318L48.4957 24.1196V24.5598H48.603Z" fill="#F79E1B"/>
</svg>
