<svg width="39" height="36" viewBox="0 0 39 36" fill="none" xmlns="http://www.w3.org/2000/svg">
<path d="M4.43647 35.7646C2.63548 35.7646 1.18268 34.5924 0.78646 32.828C0.75044 32.6226 0.738434 15.1721 0.738434 6.67651C0.738434 4.88796 2.08318 3.32902 3.83614 3.13566C5.49306 2.94231 29.8785 0.79121 30.2987 0.76704C31.3073 0.718701 32.0157 1.40754 32.0277 2.42266C32.0277 3.23234 32.0277 4.05411 32.0277 4.86379C32.0277 5.02089 32.0157 5.16591 31.9436 5.29884C31.8236 5.55262 31.6675 5.72181 31.3553 5.70973C31.0552 5.69764 5.60112 5.7339 5.48105 5.7339C4.90473 5.75807 4.58055 6.2052 4.71263 6.77319C4.90473 7.53453 5.54108 8.0421 6.33352 8.0421C14.1618 8.0421 33.3965 8.07835 35.1734 8.05418C36.6262 8.03001 38.103 9.04513 38.5953 10.5557C38.7274 10.9424 38.7754 11.3412 38.7754 11.74C38.7754 18.5317 38.7754 25.3113 38.7754 32.1029C38.7754 34.1332 37.1545 35.7646 35.1374 35.7646C30.5149 35.7646 9.53929 35.7646 4.43647 35.7646ZM20.0331 31.8129C20.6934 31.825 21.3538 31.7646 21.9902 31.5954C24.0193 31.0757 25.5081 29.9277 26.0724 27.8128C26.4806 26.2902 26.2645 24.8641 25.2199 23.6194C24.6556 22.9548 23.9713 22.4714 23.2268 22.0484C21.9301 21.2991 20.5013 20.852 19.1086 20.3444C18.1841 20.0061 17.2956 19.5952 16.6112 18.8459C15.8788 18.0483 15.6507 17.1178 16.0589 16.0906C16.4911 14.9909 17.3796 14.3866 18.4722 14.1087C19.817 13.7703 21.1257 13.9878 22.4224 14.4229C23.1068 14.6525 23.7311 15.015 24.3555 15.3655C24.5115 15.4501 24.6316 15.4501 24.7277 15.2809C24.8838 15.0271 25.0639 14.7733 25.2079 14.5196C25.4601 14.0724 25.4481 14.012 25.0038 13.734C23.3109 12.6827 21.4739 12.163 19.4808 12.1993C17.9079 12.2355 16.5271 12.731 15.3625 13.8186C14.0538 15.0392 13.5735 16.9486 14.2099 18.5921C14.6781 19.8127 15.5786 20.6586 16.6952 21.275C17.7998 21.8913 19.0005 22.278 20.1892 22.701C21.3178 23.0998 22.4224 23.5227 23.3229 24.3566C24.8717 25.7826 24.7277 28.0062 22.9507 29.1422C21.5939 30.0123 20.0931 30.1573 18.5322 29.8552C17.0554 29.5651 15.7707 28.8763 14.5941 27.9699C14.3179 27.7645 14.1979 27.7766 13.9937 28.0545C13.8136 28.2962 13.6576 28.55 13.4775 28.7917C13.2493 29.118 13.2613 29.2388 13.5735 29.5047C15.4345 31.0757 17.6197 31.7646 20.0331 31.8129Z" fill="#ED4E2E"/>
</svg>
