<svg width="39" height="39" viewBox="0 0 39 39" fill="none" xmlns="http://www.w3.org/2000/svg">
<g clip-path="url(#clip0_300_1228)">
<path d="M29.7859 1.08691H9.74537C5.13262 1.08691 1.37909 4.79514 1.37909 9.35363V29.155C1.37909 33.7135 5.13262 37.4217 9.74537 37.4217H29.7859C34.3993 37.4217 38.1515 33.7129 38.1515 29.155V9.35363C38.1515 4.79514 34.3993 1.08691 29.7859 1.08691Z" fill="white"/>
<path d="M29.8478 2.49707H9.68409C5.89163 2.49707 2.80646 5.54552 2.80646 9.29222V29.216C2.80646 32.9633 5.89163 36.0111 9.68409 36.0111H29.8478C33.639 36.0111 36.7248 32.9627 36.7248 29.216V9.29222C36.7248 5.54552 33.639 2.49707 29.8478 2.49707Z" fill="#295DAA"/>
<path d="M16.2464 16.3685H14.4897C13.9745 16.3685 13.3068 16.7287 13.114 17.2081L13.2902 16.2891H11.1434L10.1897 21.5729H12.339L12.9327 18.228H15.2448C15.2448 18.228 14.9493 19.8844 14.8178 20.6262C14.6863 21.3679 15.1963 21.5483 15.4478 21.5483H16.572L17.3048 17.4389C17.2442 16.8498 16.842 16.3685 16.2464 16.3685Z" fill="white"/>
<path d="M9.59601 16.2891L9.19257 18.5566L10.8255 16.2891H9.59601Z" fill="white"/>
<path d="M12.145 8.0127H4.95516L4.64301 9.76368H7.15238L6.14697 15.4052H8.31163L9.32215 9.76368H11.8322L12.145 8.0127Z" fill="white"/>
<path d="M13.6324 13.6726L13.9477 11.9072H12.0211L11.7077 13.6726H13.6324ZM10.5976 15.4047C10.002 15.4047 9.60114 14.9228 9.70583 14.3337L10.2586 11.2442C10.3621 10.6557 10.9372 10.1738 11.5309 10.1738H15.0559C15.6515 10.1738 16.0536 10.6557 15.9451 11.2442L15.3961 14.3337C15.2902 14.9228 14.7169 15.4047 14.122 15.4047H10.5976Z" fill="white"/>
<path d="M24.778 13.6733L25.094 11.9078H27.8842L28.1938 10.1758H24.6044C24.0088 10.1758 23.4324 10.6564 23.3283 11.2449L22.7774 14.3344C22.6721 14.9235 23.0736 15.4048 23.6711 15.4048H27.161L27.4687 13.6733H24.778Z" fill="white"/>
<path d="M20.3906 13.673H18.0287L18.6517 10.1748H16.7698L16.03 14.334C15.9247 14.9231 16.3255 15.4044 16.9211 15.4044H18.7558C19.3514 15.4044 19.8384 15.0543 20.2233 14.6015C20.2233 14.6015 20.4334 15.207 20.7353 15.3426C21.0392 15.4801 21.9571 15.4479 21.9571 15.4479L22.8993 10.1754H21.0162L20.3906 13.673Z" fill="white"/>
<path d="M33.9601 10.2006H32.2046C31.6882 10.2006 31.1896 10.5614 30.9962 11.0402L31.5018 8.19922H29.5229L28.2372 15.4044H30.2181L30.8136 12.0607H32.9604C32.9604 12.0607 32.6655 13.7158 32.534 14.4589C32.4012 15.1987 32.9126 15.3804 33.1609 15.3804H34.1197L34.8525 11.271C34.9566 10.6819 34.5563 10.2006 33.9601 10.2006Z" fill="white"/>
<path d="M26.9037 23.3304C26.1032 23.3304 25.5631 22.6795 25.7029 21.8891L26.4454 17.7362C26.5852 16.9427 27.3582 16.2949 28.1619 16.2949H32.6457C33.4443 16.2949 33.9875 16.9427 33.8458 17.7362L33.104 21.8891C32.9623 22.6788 32.1906 23.3304 31.3894 23.3304H26.9037ZM31.0811 21.3889L31.6467 18.2358H28.4683L27.904 21.3889H31.0811Z" fill="white"/>
<path d="M22.5559 21.3896H19.375L19.9387 18.2364H25.0946L25.4349 16.2949H19.6335C18.8305 16.2949 18.0606 16.9427 17.9195 17.7362L17.1771 21.8891C17.0367 22.6788 17.5748 23.3304 18.3766 23.3304H22.863C23.6654 23.3304 24.4378 22.6795 24.5776 21.8891L25.0314 19.3402H22.9198L22.5559 21.3896Z" fill="white"/>
<path d="M18.1513 25.8193L15.4491 31.3227H13.7345L13.5308 27.9917L11.8941 31.3227H10.1699L9.84052 25.8193H11.061L11.2743 30.1356L13.3764 25.8193H14.616L14.8293 30.1356L16.9314 25.8193H18.1513Z" fill="#FDDB00"/>
<path d="M23.2556 31.3227H22.0644L23.246 25.8193H24.4372L23.2556 31.3227Z" fill="#FDDB00"/>
<path d="M25.2121 31.3227H24.0209L25.2025 25.8193H26.3937L25.2121 31.3227Z" fill="#FDDB00"/>
<path d="M33.4456 31.3227H32.4868C32.0412 31.3227 31.7316 31.2798 31.5567 31.1934C31.3824 31.107 31.295 30.9335 31.295 30.6718C31.295 30.5248 31.3173 30.3526 31.3626 30.1552L32.2927 25.8193H33.4839L33.1839 27.1881H34.3367L34.114 28.1834H32.9809L32.6419 29.7534C32.6094 29.913 32.5934 30.0183 32.5934 30.0694C32.5934 30.1779 32.6304 30.2479 32.7045 30.2801C32.7785 30.3122 32.9285 30.328 33.1551 30.328H33.6588L33.4456 31.3227Z" fill="#FDDB00"/>
<path d="M18.1513 25.8193L15.4491 31.3227H13.7345L13.5308 27.9917L11.8941 31.3227H10.1699L9.84052 25.8193H11.061L11.2743 30.1356L13.3764 25.8193H14.616L14.8293 30.1356L16.9314 25.8193H18.1513Z" fill="#FDDB00"/>
<path d="M23.2556 31.3227H22.0644L23.246 25.8193H24.4372L23.2556 31.3227Z" fill="#FDDB00"/>
<path d="M25.2121 31.3227H24.0209L25.2025 25.8193H26.3937L25.2121 31.3227Z" fill="#FDDB00"/>
<path d="M33.4456 31.3227H32.4868C32.0412 31.3227 31.7316 31.2798 31.5567 31.1934C31.3824 31.107 31.295 30.9335 31.295 30.6718C31.295 30.5248 31.3173 30.3526 31.3626 30.1552L32.2927 25.8193H33.4839L33.1839 27.1881H34.3367L34.114 28.1834H32.9809L32.6419 29.7534C32.6094 29.913 32.5934 30.0183 32.5934 30.0694C32.5934 30.1779 32.6304 30.2479 32.7045 30.2801C32.7785 30.3122 32.9285 30.328 33.1551 30.328H33.6588L33.4456 31.3227Z" fill="#FDDB00"/>
<path d="M18.1513 25.8193L15.4491 31.3227H13.7345L13.5308 27.9917L11.8941 31.3227H10.1699L9.84052 25.8193H11.061L11.2743 30.1356L13.3764 25.8193H14.616L14.8293 30.1356L16.9314 25.8193H18.1513Z" fill="#FDDB00"/>
<path d="M23.2556 31.3227H22.0644L23.246 25.8193H24.4372L23.2556 31.3227Z" fill="#FDDB00"/>
<path d="M25.2121 31.3227H24.0209L25.2025 25.8193H26.3937L25.2121 31.3227Z" fill="#FDDB00"/>
<path d="M33.4456 31.3227H32.4868C32.0412 31.3227 31.7316 31.2798 31.5567 31.1934C31.3824 31.107 31.295 30.9335 31.295 30.6718C31.295 30.5248 31.3173 30.3526 31.3626 30.1552L32.2927 25.8193H33.4839L33.1839 27.1881H34.3367L34.114 28.1834H32.9809L32.6419 29.7534C32.6094 29.913 32.5934 30.0183 32.5934 30.0694C32.5934 30.1779 32.6304 30.2479 32.7045 30.2801C32.7785 30.3122 32.9285 30.328 33.1551 30.328H33.6588L33.4456 31.3227Z" fill="#FDDB00"/>
<path d="M9.09744 27.3124C8.92317 27.2229 8.61293 27.1787 8.16736 27.1787H6.46295C5.97206 27.1787 5.59926 27.2695 5.34391 27.4512C5.08857 27.6329 4.91622 27.9344 4.82557 28.3557L4.44766 30.1458C4.42149 30.2543 4.40234 30.3514 4.38957 30.4378C4.37681 30.5242 4.37042 30.6025 4.37042 30.6725C4.37042 30.8005 4.38957 30.904 4.42851 30.9834C4.46745 31.0635 4.53193 31.1285 4.62193 31.1796C4.71258 31.2307 4.83514 31.2654 4.99026 31.2849C5.14539 31.3039 5.33881 31.314 5.57117 31.314H8.46738L8.6806 30.3281H6.24016C6.01419 30.3281 5.86417 30.3104 5.78949 30.2757C5.71544 30.2404 5.67841 30.1691 5.67841 30.06C5.67841 29.9837 5.69118 29.8815 5.71735 29.7541L5.71799 29.7509H6.22165L6.22101 29.7541H8.99147L9.2915 28.357C9.33682 28.1526 9.35917 27.9772 9.35917 27.8303C9.35917 27.5742 9.27171 27.402 9.09744 27.3124ZM8.05118 28.7575H6.71957V28.7562H5.92992C5.95546 28.6295 5.9861 28.5273 6.02185 28.4509C6.05759 28.3746 6.10228 28.3153 6.15782 28.2737C6.21271 28.2321 6.28357 28.205 6.37103 28.1923C6.45848 28.1797 6.56636 28.1734 6.69531 28.1734H7.64455C7.95479 28.1734 8.10927 28.2693 8.10927 28.4604C8.10927 28.48 8.09012 28.579 8.05118 28.7575Z" fill="#FDDB00"/>
<path d="M21.8945 27.513C21.8524 27.4303 21.7847 27.3647 21.6909 27.3168C21.5977 27.2689 21.4745 27.2354 21.3232 27.2165C21.1713 27.1976 20.9823 27.1875 20.7563 27.1875H17.8697L17.6565 28.1828H20.0975C20.3235 28.1828 20.4735 28.1986 20.5482 28.2308C20.6223 28.2629 20.6599 28.333 20.6599 28.4414C20.6599 28.4925 20.644 28.5972 20.6114 28.7562H19.6571V28.7575H18.7225C18.4448 28.7575 18.2138 28.772 18.0299 28.8003C17.8461 28.8287 17.6922 28.8849 17.5697 28.9675C17.4471 29.0508 17.3501 29.1687 17.2792 29.322C17.2083 29.4753 17.1439 29.6758 17.0858 29.925L17.0373 30.1546C16.9919 30.3526 16.9696 30.5248 16.9696 30.6712C16.9696 30.8049 16.9907 30.914 17.0328 30.9966C17.0749 31.0799 17.1426 31.1449 17.2364 31.1928C17.3296 31.2407 17.4528 31.2742 17.6048 31.2931C17.7567 31.312 17.945 31.3221 18.1716 31.3221H21.2517L21.8913 28.355C21.936 28.1576 21.959 27.9854 21.959 27.8384C21.9577 27.7047 21.9366 27.5962 21.8945 27.513ZM18.4806 30.3274C18.3063 30.3274 18.2189 30.2542 18.2189 30.1073C18.2189 30.0177 18.254 29.9363 18.3255 29.8632C18.3963 29.79 18.4902 29.7528 18.6063 29.7528H19.8945L19.8952 29.7496H20.3969L20.2725 30.3268H18.4806V30.3274Z" fill="#FDDB00"/>
<path d="M30.8596 27.3124C30.6853 27.2229 30.3751 27.1787 29.9295 27.1787H28.2245C27.7336 27.1787 27.3608 27.2695 27.1054 27.4512C26.8501 27.6329 26.6778 27.9344 26.5871 28.3557L26.2092 30.1458C26.183 30.2543 26.1639 30.3514 26.1511 30.4378C26.1383 30.5242 26.132 30.6025 26.132 30.6725C26.132 30.8005 26.1511 30.904 26.19 30.9834C26.229 31.0635 26.2935 31.1285 26.3835 31.1796C26.4741 31.2307 26.5967 31.2654 26.7518 31.2849C26.9069 31.3039 27.1003 31.314 27.3333 31.314H30.2296L30.4428 30.3281H28.0017C27.7757 30.3281 27.6251 30.3104 27.551 30.2757C27.477 30.2404 27.4393 30.1691 27.4393 30.06C27.4393 29.9837 27.4521 29.8815 27.4782 29.7541L27.4789 29.7509H27.9825L27.9819 29.7541H30.7524L31.0524 28.357C31.0977 28.1526 31.1201 27.9772 31.1201 27.8303C31.1207 27.5742 31.0339 27.402 30.8596 27.3124ZM29.8134 28.7575H28.559V28.7562H27.6921C27.7176 28.6295 27.7483 28.5273 27.784 28.4509C27.8191 28.3746 27.8645 28.3153 27.9194 28.2737C27.9743 28.2321 28.0451 28.205 28.1326 28.1923C28.22 28.1797 28.3279 28.1734 28.4568 28.1734H29.4061C29.7157 28.1734 29.8708 28.2693 29.8708 28.4604C29.8714 28.48 29.8523 28.579 29.8134 28.7575Z" fill="#FDDB00"/>
</g>
<defs>
<clipPath id="clip0_300_1228">
<rect width="38" height="38" fill="white" transform="translate(0.771362 0.264648)"/>
</clipPath>
</defs>
</svg>
