<svg width="88" height="29" viewBox="0 0 88 29" fill="none" xmlns="http://www.w3.org/2000/svg">
<path d="M87.5333 27.6786C87.5333 27.7622 87.5333 27.804 87.5333 27.8876C87.4065 27.8876 87.2797 27.8876 87.1529 27.8876C85.2087 27.8876 83.2644 27.8876 81.3202 27.8876C81.0666 27.8876 80.9398 27.804 80.8975 27.5532C80.6862 26.3826 80.4326 25.2538 80.179 24.0832C80.1367 23.8742 80.0522 23.7905 79.8408 23.7905C77.009 23.7905 74.1772 23.7905 71.3453 23.7905C71.0917 23.7905 71.0072 23.8742 70.9227 24.0832C70.5 25.2538 70.0773 26.4244 69.6547 27.595C69.5701 27.804 69.4856 27.8876 69.232 27.8876C66.9496 27.8876 64.7095 27.8876 62.4271 27.8876C62.3426 27.8876 62.2158 27.9294 62.1313 27.8458C62.1735 27.7204 62.2158 27.6368 62.2581 27.5532C64.8363 21.4912 67.3723 15.4291 69.9505 9.36712C70.8804 7.19316 71.768 5.0192 72.6978 2.88704C73.1205 1.88367 73.8813 1.17295 74.9802 0.922111C75.4029 0.838497 75.8255 0.754883 76.2482 0.754883C78.0234 0.754883 79.7986 0.754883 81.5315 0.754883C81.7428 0.754883 81.8274 0.79669 81.8696 1.00572C82.4614 3.8486 83.0531 6.69148 83.6448 9.53435C84.7437 14.7602 85.8427 20.0279 86.9838 25.2538C87.1529 26.0481 87.2797 26.8843 87.5333 27.6786ZM76.8399 8.11291C76.7977 8.19653 76.7554 8.19653 76.7554 8.23834C75.5719 11.4575 74.3462 14.7184 73.1628 17.9376C73.0782 18.2302 73.205 18.1884 73.3741 18.1884C75.107 18.1884 76.8822 18.1884 78.6151 18.1884C78.8687 18.1884 78.911 18.1466 78.8687 17.8958C78.1925 14.6766 77.5162 11.4157 76.8399 8.11291Z" fill="#01579F"/>
<path d="M59.9761 0.421188C61.1173 0.630223 62.2585 0.881065 63.3574 1.29913C63.5687 1.38275 63.5687 1.46636 63.5687 1.63359C63.2729 3.43129 62.977 5.22899 62.6811 7.02669C62.6389 7.31934 62.4698 7.15211 62.3853 7.11031C61.1595 6.56682 59.9338 6.14875 58.6236 6.02333C57.1865 5.8561 55.7495 5.81429 54.3547 6.31597C53.8897 6.4832 53.4671 6.73405 53.1289 7.11031C52.4949 7.82103 52.4949 8.69897 53.1289 9.40969C53.5939 9.91138 54.1433 10.2876 54.7773 10.6221C55.834 11.2074 56.8906 11.7091 57.9473 12.2944C59.0885 12.9215 60.1029 13.674 60.9905 14.6356C62.3853 16.2242 62.8502 18.0637 62.5543 20.1123C62.0049 23.8749 59.638 26.0907 56.1721 27.3449C54.2279 28.0556 52.1568 28.2646 50.0858 28.2646C49.959 28.2646 48.6064 28.2228 48.226 28.181C46.3241 27.972 44.5066 27.6794 42.7314 26.9686C42.4778 26.885 42.3933 26.7596 42.4356 26.4669C42.7314 24.6692 43.0273 22.8715 43.3232 21.1157C43.3654 20.7394 43.3654 20.7394 43.7458 20.9066C45.2674 21.6173 46.789 22.2444 48.4374 22.4535C49.9167 22.6207 51.396 22.7879 52.8753 22.3699C53.5093 22.2026 54.0588 21.91 54.5237 21.4919C55.3691 20.6976 55.4113 19.527 54.6505 18.649C54.0588 17.9801 53.2557 17.5203 52.4527 17.1022C51.2692 16.4751 50.0858 15.9316 48.9868 15.2209C47.9725 14.5101 47.0426 13.7576 46.3241 12.7124C44.9715 10.7057 45.0138 8.57355 45.8169 6.39959C46.6622 4.18382 48.3528 2.72057 50.4662 1.6754C52.0723 0.881065 53.8052 0.421188 55.6227 0.337574C56.7638 0.212153 58.9194 0.25396 59.9761 0.421188Z" fill="#01579F"/>
<path d="M0 1.08994C0.0422663 0.713682 0.295864 0.671875 0.633995 0.671875C4.18437 0.671875 7.73474 0.671875 11.2851 0.671875C11.6655 0.671875 12.0882 0.713682 12.4686 0.797296C13.7788 1.04814 14.5396 1.80066 14.7932 3.09668C15.554 6.98473 16.3571 10.8728 17.1179 14.7608C17.1601 14.8863 17.2024 15.1371 17.2024 15.2625C17.2024 15.2207 17.1179 15.0535 17.0756 15.0117C15.2581 10.4965 12.1304 7.06835 7.94607 4.51812C7.81927 4.4345 7.35434 4.18366 7.26981 4.14186C5.02969 2.88765 2.70504 1.96789 0.211332 1.34079C0.126799 1.29898 0 1.25717 0 1.25717C0 1.17356 0 1.17356 0 1.08994Z" fill="#01579F"/>
<path d="M7.43875 4.22566C7.65008 4.35108 7.77688 4.43469 7.94595 4.5183C12.088 7.06853 15.2158 10.4967 17.0755 15.0119C17.0755 15.0537 17.16 15.1791 17.2023 15.2627C17.4559 16.4751 17.7095 17.6875 17.9631 18.9417C17.9631 18.9835 17.9631 19.0671 18.0476 19.1089C18.1321 18.8581 18.2589 18.5655 18.3435 18.3146C20.499 12.5452 22.6546 6.77588 24.8525 1.00652C24.8947 0.839288 24.937 0.713867 25.1906 0.713867C27.5998 0.713867 30.009 0.713867 32.4181 0.713867C32.4604 0.839288 32.3759 0.922902 32.3759 1.00652C28.741 9.8696 25.1061 18.7327 21.4712 27.554C21.3866 27.763 21.3021 27.8048 21.0908 27.8048C18.7661 27.8048 16.4837 27.8048 14.1591 27.8048C13.9478 27.8048 13.8632 27.7212 13.7787 27.5122C11.6654 19.9451 9.6366 12.3362 7.60782 4.72734C7.56555 4.60192 7.48102 4.35108 7.43875 4.22566Z" fill="#01579F"/>
<path d="M34.3624 27.8464C33.2635 27.8464 32.2068 27.8464 31.1079 27.8464C30.8966 27.8464 30.8121 27.8046 30.8543 27.5538C31.7842 21.9098 32.714 16.2241 33.6439 10.5801C34.1511 7.36099 34.7006 4.18366 35.2077 0.964524C35.25 0.755489 35.3345 0.671875 35.5459 0.671875C37.7015 0.671875 39.857 0.671875 42.0549 0.671875C42.3085 0.671875 42.3508 0.755489 42.3085 0.964524C41.8858 3.72379 41.4209 6.39943 40.9982 9.11689C40.491 12.0852 40.0261 15.0953 39.5189 18.0636C39.0117 21.0737 38.5468 24.0838 38.0396 27.0939C37.9128 27.8464 37.9128 27.8464 37.1097 27.8464C36.2221 27.8464 35.2923 27.8464 34.3624 27.8464Z" fill="#01579F"/>
</svg>
